<?xml version="1.0" encoding="UTF-8"?>
<svg id="Calque_1" xmlns="http://www.w3.org/2000/svg" version="1.1" viewBox="0 0 512 512">
  <!-- Generator: Adobe Illustrator 29.6.0, SVG Export Plug-In . SVG Version: 2.1.1 Build 207)  -->
  <defs>
    <style>
      .st0 {
        fill: #00f90c;
      }
    </style>
  </defs>
  <path class="st0" d="M39.3,15c-.8,0-1.6,0-2.3.1-12.6,1.3-21.9,12.6-20.6,25.2,1.3,12.6,12.6,21.8,25.2,20.6,12.6-1.3,21.8-12.6,20.6-25.2-1.2-11.9-11.2-20.7-22.9-20.7h0ZM160.5,24.1c-.5,0-.9,0-1.4,0-7.5.8-12.9,7.5-12.2,14.9.8,7.5,7.5,12.9,14.9,12.2,7.5-.8,12.9-7.4,12.2-14.9-.7-7-6.6-12.3-13.5-12.2h0ZM84.7,42.1c-.5,0-.9,0-1.4,0-7.5.8-12.9,7.5-12.2,14.9.8,7.5,7.5,12.9,14.9,12.2,7.5-.8,12.9-7.4,12.2-14.9-.7-7-6.6-12.3-13.5-12.2h0ZM194.4,53.9c-.7,0-1.5,0-2.2,0-12.1,1.2-21,12.1-19.8,24.2,1.2,12.1,12.1,21,24.2,19.8,12.1-1.2,21-12.1,19.7-24.2-1.2-11.4-10.7-19.8-21.9-19.8h0ZM119.5,77.7c-1.3,0-2.7,0-4,.2-7.7.8-14.6,3.8-20.2,8.2-5.1-4.2-11.8-6.4-18.8-5.7-14.1,1.4-24.3,14-22.9,28.1,1.4,14.1,14,24.3,28.1,22.9.5,0,1-.1,1.4-.2,4.5,11.4,14.1,20,25.8,23.3-1.3,3.5-1.8,7.3-1.4,11.2,1.4,13.6,13.6,23.5,27.2,22.1,13.6-1.4,23.5-13.5,22.1-27.1-.7-6.8-4.1-12.7-9-16.7,7.7-8,12-19.2,10.8-31.1-2.1-20.2-19.1-35.2-38.9-35.2h0ZM228.4,121.1c-2,0-4,0-6,.3-32.2,3.3-55.7,32.1-52.4,64.3.5,4.9,1.6,9.5,3.2,13.9-16.9,7.7-27.9,25.6-25.9,45.2,2.5,24.6,24.4,42.4,49,39.9,4.1-.4,8.1-1.4,11.8-2.8,0,1.4.1,2.7.3,4.1,3.1,30.5,28,53.6,57.7,55.3-5,15.2-6.9,31.7-5.2,48.6,0,.5.1,1,.2,1.5-.3,0-.6,0-.9,0-19.7,2-34.1,19.6-32.1,39.4,2,19.7,19.6,34.1,39.3,32.1,7.9-.8,15-4.1,20.5-9.1,24.3,28.8,61.9,45.6,102.2,41.5,64.8-6.6,111.9-64.5,105.3-129.2-4-39.6-27.2-72.6-59.5-90.8,1.9-7.5,2.5-15.4,1.7-23.5-3.8-37-36.8-64-73.9-60.2-25.2,2.6-45.8,18.8-55.1,40.6-9.9-8.1-22.4-13.1-35.8-13.8,10.2-11.8,15.8-27.6,14.1-44.4-3.1-30.2-28.6-52.8-58.3-52.8h0ZM337.2,122.8c-1,0-2,0-3,.2-16.2,1.6-28,16.1-26.3,32.3,1.6,16.2,16.1,28,32.3,26.3,16.2-1.6,28-16.1,26.3-32.3-1.5-15.2-14.4-26.5-29.3-26.5h0ZM396.8,149.2c-.5,0-.9,0-1.4,0-7.5.8-12.9,7.4-12.2,14.9.8,7.5,7.5,12.9,14.9,12.2,7.5-.8,12.9-7.4,12.2-14.9-.7-7-6.6-12.3-13.5-12.2h0ZM61.6,202.4c-.5,0-.9,0-1.4,0-7.5.8-13,7.4-12.2,14.9.6,6.2,5.4,11,11.3,12-.6,2.6-.7,5.3-.4,8.1,1.5,14.4,14.3,24.9,28.7,23.4,14.4-1.5,24.9-14.3,23.4-28.7-1.5-14.4-14.3-24.9-28.7-23.4-2.9.3-5.6,1-8.1,2.2-2-5.1-7-8.6-12.7-8.6h0ZM105.7,278.3c-.7,0-1.4,0-2,0-10.9,1.1-18.8,10.8-17.7,21.7,1.1,10.9,10.8,18.8,21.7,17.7,10.9-1.1,18.8-10.8,17.7-21.7-1-10.2-9.6-17.8-19.7-17.8h0ZM154.5,315.5c-1.5,0-2.9,0-4.4.2-23.9,2.4-41.2,23.8-38.8,47.7,2.4,23.9,23.8,41.2,47.6,38.8,10.2-1,19.3-5.6,26.1-12.2,5.2,3,11.3,4.4,17.6,3.8,16.2-1.6,28-16.1,26.3-32.3-1.6-16.2-16.1-28-32.3-26.3-1.8.2-3.5.5-5.2,1-7.7-12.5-21.6-20.6-36.9-20.6h0Z"/>
</svg>