<?xml version="1.0" encoding="UTF-8"?>
<svg id="Calque_1" xmlns="http://www.w3.org/2000/svg" version="1.1" viewBox="0 0 512 512">
  <!-- Generator: Adobe Illustrator 29.6.0, SVG Export Plug-In . SVG Version: 2.1.1 Build 207)  -->
  <defs>
    <style>
      .st0 {
        fill: #fff200;
      }

      .st1 {
        fill: #fff6a6;
      }
    </style>
  </defs>
  <path class="st1" d="M646.4,29c-17.2,18.8-31.6,40.7-42.8,65l117.9,110.7-12.8,13.6-112.8-105.9c-9.2,24.3-15.4,50.5-18.2,77.8l116.2,58.7-8.4,16.7-109.2-55.2c-1,24.4.8,49.7,5.4,75.2l100.5,8.3-1.5,18.6-95-7.8c.7,3.1,1.5,6.2,2.3,9.3,4.4,16.5,9.9,32.3,16.4,47.4,8.8-1.6,17.8-3.3,27.8-5.2,26.8-5,53.1-10.1,53.1-10.1l3.5,18.3s-26.4,5.1-53.2,10.1c-8,1.5-15.8,3-23.2,4.3,8.6,17.5,18.6,33.9,29.7,49l60.8-34.3,9.2,16.3-58.4,32.9c12.2,14.8,25.5,28.2,39.6,40l17.2-20.3c1.4-20.5,5-37.7,14.4-51.7,6.3-9.4,15.4-16.8,27.2-21.9-8.3-12.8-14.8-27.3-19.1-43.3-14.5-54.1.6-108.5,36.4-138.1l-123-178.4h0ZM977.3,29l-123,178.5c35.8,29.6,51,83.9,36.4,138.1-4.3,15.9-10.8,30.2-18.9,43,12.3,5.4,21.6,13.5,27.5,23.7,7.8,13.3,10.5,29.1,11.4,47.5l19.6,23.2c14.1-11.8,27.4-25.2,39.6-40l-58.4-32.9,9.2-16.3,60.8,34.3c11-15.1,21-31.5,29.7-49-7.4-1.4-15.2-2.8-23.2-4.3-26.8-5-53.2-10.1-53.2-10.1l3.5-18.3s26.4,5,53.1,10.1c9.8,1.8,19.2,3.6,27.8,5.2,6.4-15.1,11.9-31,16.4-47.5.8-3.1,1.6-6.2,2.3-9.3l-95,7.8-1.5-18.6,100.5-8.3c4.7-25.5,6.4-50.7,5.4-75.2l-109.2,55.2-8.4-16.7,116.2-58.7c-2.8-27.4-9-53.6-18.2-77.9l-112.8,105.9-12.8-13.6,117.9-110.7c-11.2-24.3-25.7-46.3-42.8-65h.1ZM810.1,290c-10.5,0-20.2,5.3-27.8,15.1-7.6,9.8-12.7,23.9-12.7,39.7s5,29.9,12.7,39.7c7.6,9.8,17.3,15.2,27.8,15.2s20.1-5.4,27.8-15.2c7.6-9.8,12.7-23.9,12.7-39.7s-5-29.9-12.7-39.7c-7.6-9.8-17.3-15.1-27.8-15.1h0ZM849.7,401.2c-10.4,11.1-24.2,18.3-39.6,18.3s-28.5-6.8-38.8-17.4c-2.7.7-5.1,1.4-7.4,2.2-11.5,4-18.4,9.5-23.4,17-9.2,13.7-11.5,37-11.9,69.2h163.8c-.1-31.5-1.2-55.2-9.2-68.9-4.4-7.5-10.6-12.9-21.6-17.1-3.5-1.3-7.4-2.4-11.9-3.4h0Z"/>
  <path class="st0" d="M256,80.5c-96.9,0-175.5,78.6-175.5,175.5s78.6,175.5,175.5,175.5,175.5-78.6,175.5-175.5-78.6-175.5-175.5-175.5ZM256,308.7c-29.1,0-52.7-23.6-52.7-52.7s23.6-52.7,52.7-52.7,52.7,23.6,52.7,52.7-23.6,52.7-52.7,52.7Z"/>
</svg>