<?xml version="1.0" encoding="UTF-8"?>
<svg id="Calque_1" xmlns="http://www.w3.org/2000/svg" version="1.1" viewBox="0 0 512 512">
  <!-- Generator: Adobe Illustrator 29.6.0, SVG Export Plug-In . SVG Version: 2.1.1 Build 207)  -->
  <defs>
    <style>
      .st0 {
        fill: #b21616;
      }
    </style>
  </defs>
  <path class="st0" d="M442.3,224.7h-74.7c-13.4,0-25.3,8.6-29.6,21.3l-26.5,79.4-82.5-247.5c-4.3-12.8-16.1-21.3-29.6-21.3s-25.3,8.6-29.6,21.3l-48.9,146.8h-52.3c-17.2,0-31.2,14-31.2,31.2s14,31.2,31.2,31.2h74.7c13.4,0,25.3-8.6,29.6-21.3l26.5-79.4,82.5,247.5c4.3,12.8,16.1,21.3,29.6,21.3s25.3-8.6,29.6-21.3l48.9-146.8h52.3c17.2,0,31.2-14,31.2-31.2s-14-31.2-31.2-31.2Z"/>
</svg>