<?xml version="1.0" encoding="UTF-8"?>
<svg id="Calque_1" xmlns="http://www.w3.org/2000/svg" version="1.1" viewBox="0 0 512 512">
  <!-- Generator: Adobe Illustrator 29.6.0, SVG Export Plug-In . SVG Version: 2.1.1 Build 207)  -->
  <defs>
    <style>
      .st0 {
        fill: #f2b6ff;
      }
    </style>
  </defs>
  <path class="st0" d="M405.8,78.9l24.4,24.4L100.5,433.1l-24.4-24.4L405.8,78.9ZM168.3,255.7c0-48.4,39.3-87.7,87.7-87.7,10,0,20,1.7,29.5,5.1l43.4-43.4c-23.6-7.5-48.2-11.3-72.9-11.2-28.9,0-57.5,5.4-84.5,15.6-13.4,5.2-26.4,11.4-38.9,18.6-12.2,7.1-23.8,15.1-34.8,23.8-10.4,8.2-20.2,17.1-29.4,26.5-8,8.1-15.6,16.5-22.7,25.4l-4.5,5.6-3.9,5.3c-2.4,3.2-4.5,6.2-6.2,8.7-1.7,2.5-3,4.5-3.9,5.9l-1.3,2.1,1.3,2.1c.9,1.3,2.2,3.5,3.9,5.9,1.7,2.4,3.8,5.5,6.2,8.7l3.9,5.3,4.5,5.6c7.1,8.8,14.7,17.3,22.7,25.4,9.2,9.5,19.1,18.3,29.4,26.5,4.8,3.8,9.7,7.5,14.8,11l60.7-60.7c-3.4-9.5-5.1-19.5-5.1-29.6h0ZM484.7,253.6c-.9-1.3-2.2-3.5-3.9-5.9-1.7-2.4-3.8-5.5-6.2-8.7-2.4-3.5-5.3-7-8.4-10.9-7.1-8.9-14.7-17.4-22.7-25.5-9.2-9.5-19.1-18.3-29.4-26.6-5.7-4.5-11.6-8.8-17.6-13l-59.4,59.4c18.3,44.8-3.2,96-48,114.4-21.3,8.7-45.1,8.7-66.4,0l-43.3,43.3c24.6,8.4,50.5,12.7,76.5,12.8,28.8,0,57.5-5.1,84.5-15.3,13.4-5.1,26.4-11.3,38.9-18.5,12.2-7.1,23.8-15,34.8-23.8,10.4-8.2,20.2-17.1,29.4-26.6,8-8.1,15.6-16.6,22.7-25.5,3.1-3.9,5.9-7.5,8.4-10.9,2.4-3.2,4.5-6.2,6.2-8.7,1.7-2.5,3-4.6,3.9-5.9l1.3-2.1-1.3-2.1Z"/>
</svg>