<?xml version="1.0" encoding="UTF-8"?>
<svg id="Calque_1" xmlns="http://www.w3.org/2000/svg" version="1.1" viewBox="0 0 512 512">
  <!-- Generator: Adobe Illustrator 29.6.0, SVG Export Plug-In . SVG Version: 2.1.1 Build 207)  -->
  <defs>
    <style>
      .st0 {
        fill: #cc3232;
      }
    </style>
  </defs>
  <path class="st0" d="M408.7,326.8c-4.1-41.1-21.5-79.8-42.9-115.1-21.4-35.3-46.8-68-69.1-102.7-15.4-24.1-36.4-62.3-41.5-91.4-5.9,29.1-26.1,67.3-41.5,91.4-22.3,34.8-47.7,67.4-69.1,102.7-21.4,35.3-38.8,74-42.9,115.1s6.6,84.9,35.3,114.7c26.1,27.1,62.7,49.2,118.2,49.2s92.1-22.1,118.2-49.2c28.6-29.7,39.3-73.6,35.3-114.7ZM183.1,431h0c-2.4,3.8-7.6,4.7-11.1,2-12.7-9.7-23.2-22.1-30.8-36.3-11.9-22.2-15.9-48.1-11.5-72.9.7-4.2,4.7-6.9,8.9-6.2,4.2.7,6.9,4.7,6.2,8.9-3.8,21.4-.3,43.8,10,63,6.5,12.3,15.7,23,26.6,31.4,3.1,2.4,3.9,6.8,1.8,10.1ZM195.2,447.8c-4.3,0-7.7-3.5-7.7-7.7s3.5-7.7,7.7-7.7,7.7,3.5,7.7,7.7-3.5,7.7-7.7,7.7Z"/>
</svg>