<?xml version="1.0" encoding="UTF-8"?>
<svg id="Calque_1" xmlns="http://www.w3.org/2000/svg" version="1.1" viewBox="0 0 512 512">
  <!-- Generator: Adobe Illustrator 29.6.0, SVG Export Plug-In . SVG Version: 2.1.1 Build 207)  -->
  <defs>
    <style>
      .st0 {
        fill: #a52020;
      }
    </style>
  </defs>
  <path class="st0" d="M107.2,17.7C84.6,148.6,17.7,174.9,17.7,266.7s45.5,79.8,89.5,79.8,3.4,0,5.1-.2c.8-6.5,1.9-12.7,3.1-18.8-3,.4-6,.6-9.1.6-38.5,0-69.7-31.5-69.7-70.7s31.1-70.7,69.7-70.7,1.1,0,1.7,0c-17.2,9.4-28.9,28.2-28.9,49.5s20.1,51.5,46.3,55.3c10.5-29.3,25.4-55.5,41.1-83.1,3.1-5.4,6.1-10.8,9.2-16.3-20.9-44.9-53.6-89.3-68.7-174.4h0ZM403.7,17.7c-14.9,86.6-49.3,127.5-70.9,171.8,4.3,8.4,8.7,16.6,12.9,24.6.3.5.5,1,.8,1.5,12.7-17.6,33.1-29,56.3-29s1.2,0,1.8,0c-17.2,9.4-28.9,28.2-28.9,49.5,0,30.6,24,55.9,53.9,55.9s31.6-7.9,41.4-20.2c-6.6,32.2-34.6,56.2-68.2,56.2s-6.3-.2-9.3-.7c1.4,6.1,2.7,12.4,3.7,18.8,2.2.2,4.4.3,6.5.3,45,0,87.8-31.6,87.8-75.3,0-88.1-64.5-122.9-87.8-253.5h0ZM256.7,52.5c-18.8,73.3-47,123.1-71.7,166.4-29.7,52.2-53.7,94.3-53.7,161.3s15.4,58.7,39.1,78.6c23.7,19.9,55.4,31.9,86.1,31.9s62.7-11.3,85.5-29.9c22.7-18.6,37.1-44.1,37.1-73.8,0-64.2-23.3-108.4-52.1-163.1-24-45.3-51.4-97.7-70.3-171.5h0ZM255.2,265c6.4,0,12.8.6,18.9,1.8-31.1,9-53.8,38.7-53.8,73.5s32.8,76.3,73.5,76.3,53.7-17.4,65.8-42.4c-1.8,57-47.7,102.4-104.2,102.4s-104.3-47.2-104.3-105.8,46.7-105.8,104.3-105.8h0Z"/>
</svg>