<?xml version="1.0" encoding="UTF-8"?>
<svg id="Calque_1" xmlns="http://www.w3.org/2000/svg" version="1.1" viewBox="0 0 175 35">
  <!-- Generator: Adobe Illustrator 29.6.0, SVG Export Plug-In . SVG Version: 2.1.1 Build 207)  -->
  <defs>
    <style>
      .st0 {
        fill: #f6f5f2;
      }
    </style>
  </defs>
  <path class="st0" d="M20.5,22c0,2.1-1.2,3.8-2.7,4.6-1.4.8-3.2,1.3-6.6,1.3s-1.5,0-2.5,0c-.4,0-1.1,0-1.9,0v-.2c.3-.1.3-1.3.3-9v-2.8c0-7.2,0-8.2-.3-8.4v-.2c.5,0,1.4,0,2.1-.1.8,0,2,0,3.1,0s2.7.2,3.8.5c1.4.4,3.9,1.6,3.9,5.1s-1.2,3.8-3.1,4.3h0c2.1.5,4,2.4,4,5h0ZM14.9,13.2c0-1.3-.9-2-2.3-2s-.7,0-1,0v4.1c.3,0,.6,0,.8,0,.3,0,.7,0,1.1-.2.6-.2,1.3-.8,1.3-1.9h0ZM15.5,21.4c0-1.1-.8-1.8-1.6-2.1-.4-.1-.9-.2-1.3-.2s-.7,0-.9,0v4.4c0,.1,0,.2,0,.2.2,0,.6,0,1,0,.5,0,1.1-.1,1.5-.3.6-.3,1.2-.9,1.2-2h0Z"/>
  <path class="st0" d="M23.8,15.8c0-7.2,0-8.2-.4-8.5v-.2h5.7v.2c-.3.3-.4,1.2-.4,8.5v7.7c0,.2,0,.3.2.3h3.9c.7,0,1,0,1.3-.1.3,0,.7-.1.8-.2h.2c0,2.1,0,2.9,0,4.5h-11.6v-.2c.4-.2.3-1.2.3-9v-2.8Z"/>
  <path class="st0" d="M57.8,17.4c0,6.1-4.7,10.8-11,10.8s-10.9-4.6-10.9-10.6,4.8-10.7,11.2-10.7,10.8,4.5,10.8,10.5h0ZM52.7,17.5c0-3.4-2.4-6.2-5.8-6.2s-6,2.7-6,6.2,2.4,6.2,5.9,6.2,5.8-2.7,5.8-6.2h0Z"/>
  <path class="st0" d="M81.9,17.4c0,6.1-4.7,10.8-11,10.8s-10.9-4.6-10.9-10.6,4.8-10.7,11.2-10.7,10.8,4.5,10.8,10.5h0ZM76.8,17.5c0-3.4-2.4-6.2-5.8-6.2s-6,2.7-6,6.2,2.4,6.2,5.9,6.2,5.8-2.7,5.8-6.2h0Z"/>
  <path class="st0" d="M102.1,17.1c0,3.9-1.6,7-4.6,9-1.9,1.3-4.4,1.9-7.3,1.9s-2.6,0-3.5,0c-.7,0-1.6,0-2.2-.1v-.2c.4-.3.4-1.2.4-9v-2.8c0-7.2,0-8.1-.3-8.3v-.3c.6,0,1.5-.1,2.7-.2,1.3,0,2.4,0,3.5,0,3.1,0,5.4.6,7.1,1.6,3.2,1.9,4.3,5.3,4.3,8.4h0ZM97,17.2c0-1.9-.7-3.7-2-4.7-1-.7-2.2-1.2-3.8-1.2s-1,0-1.4.1v11.8c0,.1,0,.2.1.2.4,0,.8.1,1.2.1,1.2,0,2.5-.4,3.5-1.1,1.4-1.1,2.4-2.8,2.4-5.2h0Z"/>
  <path class="st0" d="M106.8,7h.6c6.1,9.5,7.1,11.2,7.9,12.9h0c.8-1.6,1.8-3.3,8-12.9h.7l1.7,11.7c1.1,7.8,1.3,8.9,1.6,9.1v.2h-5.7v-.2c.3-.1.1-1.5-.3-4.9-.2-1.1-.3-2.7-.4-4.3h0c-.7,1.6-1.2,2.5-1.9,3.6-.6,1.1-1.9,3.1-3.5,5.5h-.7c-1.7-2.6-3-4.5-3.6-5.7-.6-1-1.2-2-1.8-3.5h0c0,1.6-.3,3.2-.4,4.3-.4,3.4-.6,4.8-.3,4.9v.2h-5.4v-.2c.3-.2.6-1.3,1.7-9.1l1.8-11.7Z"/>
  <path class="st0" d="M134.9,24.9c-.6,1.5-1.1,2.7-.8,2.8v.2h-5.6v-.2c.3-.2.8-1.3,4.2-9.1l5.2-11.8h.7l5.2,11.8c3.4,7.8,3.9,8.9,4.2,9.1v.2h-6.1v-.2c.3-.2-.2-1.3-.8-2.8h-6.2ZM139.6,21h0c-1-2.7-1.4-3.9-1.6-4.6h0c-.2.7-.6,1.9-1.7,4.5h0c0,0,3.3,0,3.3,0Z"/>
  <path class="st0" d="M167.9,28.1h-.7c-4.3-3.6-6.9-5.9-8.7-7.5-1.3-1.2-2.4-2.2-4-3.9h0c0,1.1,0,1.8,0,2.4,0,7.2,0,8.3.3,8.5v.2h-5.2v-.2c.3-.2.3-1.3.3-9.1V7h.7c4.4,3.8,7.1,6.1,8.8,7.7,1.2,1.1,2.4,2.3,3.8,3.7h0c0-1.3,0-2.2,0-3,0-6.8,0-7.9-.4-8.1v-.2h5.2v.2c-.3.2-.3,1.3-.3,8.5v12.3Z"/>
</svg>