<?xml version="1.0" encoding="UTF-8"?>
<svg xmlns="http://www.w3.org/2000/svg" version="1.1" xmlns:xlink="http://www.w3.org/1999/xlink" viewBox="0 0 60 60">
  <!-- Generator: Adobe Illustrator 29.6.0, SVG Export Plug-In . SVG Version: 2.1.1 Build 207)  -->
  <defs>
    <style>
      .st0 {
        fill: #fff;
      }

      .st1 {
        display: none;
      }
    </style>
  </defs>
  <g id="Calque_1" class="st1">
    <image width="600" height="600" transform="translate(-16.2 -16.2) scale(.2)" xlink:href="depositphotos_364050312-stock-illustration-vector-sided-game-dice-multi.webp"/>
  </g>
  <g id="Calque_3">
    <path d="M54.8,43.2v-26.3c0-.7-.4-1.4-1-1.7L31,2c-.6-.4-1.4-.4-2,0L6.2,15.1c-.6.4-1,1-1,1.7v26.3c0,.7.4,1.4,1,1.7l22.8,13.2c.6.4,1.4.4,2,0l22.8-13.2c.6-.4,1-1,1-1.7Z"/>
  </g>
  <g id="Calque_2" class="st1">
    <path class="st0" d="M55,43.9l-10.4-6,10.9-22.6-25-2.2V1.4c0-.3-.2-.5-.5-.5s-.5.2-.5.5v11.6h-.4s0,.1,0,.1l-24.7,2.1,10.9,22.7-10.4,6c-.2.1-.3.4-.2.7,0,.2.3.3.4.3s.2,0,.2,0l10.4-5.9.2.4h0c0-.1,13.9,20.3,13.9,20.3l13.9-20.4h0c0,.1.2-.2.2-.2l10.4,5.9c.2.1.5,0,.7-.2.1-.2,0-.5-.2-.7ZM54,16.1l-10.1,20.9-13-22.9,23.1,2ZM43.1,37.6h-26.2l13.1-23,13.1,23ZM29.1,14.1l-13,22.9L6,16.1l23.1-2ZM17,38.6h26l-13,19.1-13-19.1Z"/>
  </g>
</svg>