<?xml version="1.0" encoding="UTF-8"?>
<svg id="Calque_1" xmlns="http://www.w3.org/2000/svg" version="1.1" viewBox="0 0 512 512">
  <!-- Generator: Adobe Illustrator 29.6.0, SVG Export Plug-In . SVG Version: 2.1.1 Build 207)  -->
  <defs>
    <style>
      .st0 {
        fill: #dbce33;
      }
    </style>
  </defs>
  <path class="st0" d="M234.8,17.3C62,31.5-37.9,222.5,47,374.2c90.7,161.8,326.8,161.7,417.5,0C559.1,205.5,426.4,1.5,234.8,17.3ZM63,208.6c-1.5-8.4-5.4-26.6,7.5-27.2,11.1-.5,9,11.8,9.9,18.2,8.2,55.6,62.8,86.1,114.3,61.3,49.4-23.8,43.1-99.1-9-115.2-37.7-11.7-80.9,18.8-66.2,59.7,13.7,38,75,31.5,71-5.5-1.6-14.5-18.6-23.5-31.4-15.7-4.8,2.9-5.4,6.3-2.2,11,13.9-3.6,16.9,15.2,4.5,19.4-19.7,6.5-34-26.5-18.1-42,22.9-22.3,62.8-5.8,65.9,25.5,5.9,59.3-86.8,72.4-107.4,13-19-54.9,36.9-99.4,88.8-83.2,71.6,22.3,76.8,124,6.5,152.4-58.3,23.6-123.2-8.9-134.1-71.5ZM308.1,356.6c-3.3,2.2-12.2,3.4-16.4,4.2-24.7,4.4-58.1,4.7-82.3-2.2-11.8-3.4-13.4-13.8-2.3-18.8,12.8,1.1,25.3,4.7,38.1,5.4,10.1.6,21.6,0,31.7-1,6.8-.7,21.9-5.1,27.1-4.5,8.3.9,11,12.5,4.1,17ZM449,208.6c-10.9,62.6-75.9,95.1-134.1,71.5-70.3-28.4-65-130.1,6.5-152.4,52-16.2,107.8,28.4,88.8,83.2-20.6,59.3-113.3,46.4-107.4-13,3.1-31.4,43.1-47.8,65.9-25.5,15.9,15.5,1.6,48.5-18.1,42-12.4-4.1-9.4-23,4.5-19.4,5.6-7.3-2.1-12.5-9-13.5-27.1-3.8-34,33.4-9.7,45.2,53.1,25.9,86.7-58.6,26.4-80.6-68.8-25.1-113.8,81.2-45.3,114.5,51.5,25,105.9-5.5,114.1-61.1.9-6.3-1.2-18.7,9.9-18.2,12.9.6,9,18.8,7.5,27.2Z"/>
</svg>