<?xml version="1.0" encoding="UTF-8"?>
<svg id="Calque_1" xmlns="http://www.w3.org/2000/svg" version="1.1" viewBox="0 0 512 512">
  <!-- Generator: Adobe Illustrator 29.6.0, SVG Export Plug-In . SVG Version: 2.1.1 Build 207)  -->
  <defs>
    <style>
      .st0 {
        fill: #f9edcd;
      }
    </style>
  </defs>
  <path class="st0" d="M453.4,34l24.6,24.6L58.6,478l-24.6-24.6L453.4,34ZM212.9,243.6c-10.2-11.8-24.1-17.2-38-15.3-.2,9.6-.4,19.1-.6,28.5-.3,11.4-.5,22.4-.7,33l42.3-42.3c-.9-1.3-1.9-2.6-2.9-3.8h0ZM189.7,415.3c7.2,3.8,19.6-3.4,28.7-10.1l10.1,13.8c-13.2,9.7-24.5,14.5-34.3,14.5-4.3,0-8.6-1-12.4-3-9.6-5-15.9-15.6-19.8-31.8l-48.3,48.3c25.9,71.5,159.5,42.8,159.5-70.6s98.8-69.3,122.4-155.1c6.3-22.9,8.4-43.9,7-63.1l-225.9,225.9c3.4,21.4,8.8,28.9,13.1,31.2h0ZM157.2,256.3c.6-25.1,1.2-51.1,1.3-77.9,0-26.2,5.4-47.9,15.9-64.5,9.2-14.7,23.2-25.8,39.6-31.2,40-13.8,91.4,3.3,110.6,27.8l-13.4,10.6c-15-19.2-59.2-33.3-91.6-22.2-21,7.2-34.8,23.9-40.7,48.8,6.5-6,13.7-11.2,21.5-15.3,22.1-11.4,44.1-10.5,63.6,2.4l-9.5,14.2c-12.4-8.2-25.8-9.7-40-4.3-22.2,8.5-37.4,29.6-39,34.4,0,10.7-.1,21.3-.3,31.8,18.8-1.8,37.1,5.8,50.6,21.4.8.9,1.5,1.8,2.2,2.7l148-148c-14-18.8-33-34.6-55.6-47.7-54.5-31.5-211-12.7-211,108.9v205.4l46.8-46.8c.1-15.4.5-32.3,1-50.6h0Z"/>
</svg>