<?xml version="1.0" encoding="UTF-8"?>
<svg id="Calque_1" xmlns="http://www.w3.org/2000/svg" version="1.1" viewBox="0 0 512 512">
  <!-- Generator: Adobe Illustrator 29.6.0, SVG Export Plug-In . SVG Version: 2.1.1 Build 207)  -->
  <defs>
    <style>
      .st0 {
        fill: #e8b69a;
      }
    </style>
  </defs>
  <path class="st0" d="M196,16c-16.6,0-30,13.4-30,30v120H46c-16.6,0-30,13.4-30,30v120c0,16.6,13.4,30,30,30h120v120c0,16.6,13.4,30,30,30h120c16.6,0,30-13.4,30-30v-120h120c16.6,0,30-13.4,30-30v-120c0-16.6-13.4-30-30-30h-120V46c0-16.6-13.4-30-30-30h-120ZM196,151h120l-60,60-60-60ZM196,226h120l-60,60-60-60ZM196,301h120l-60,60-60-60Z"/>
</svg>