<?xml version="1.0" encoding="UTF-8"?>
<svg id="Calque_1" xmlns="http://www.w3.org/2000/svg" version="1.1" viewBox="0 0 512 512">
  <!-- Generator: Adobe Illustrator 29.6.0, SVG Export Plug-In . SVG Version: 2.1.1 Build 207)  -->
  <defs>
    <style>
      .st0 {
        fill: #9cb5d3;
      }
    </style>
  </defs>
  <path class="st0" d="M256,401.7c-5.1,0-10.2-1.9-14.1-5.8l-133.8-133.8c-7.8-7.8-7.8-20.4,0-28.3,7.8-7.8,20.4-7.8,28.3,0l119.7,119.7,119.7-119.7c7.8-7.8,20.4-7.8,28.3,0,7.8,7.8,7.8,20.4,0,28.3l-133.8,133.8c-3.9,3.9-9,5.8-14.1,5.8h0ZM256,284.2c-5.1,0-10.2-1.9-14.1-5.8L108,144.5c-7.8-7.8-7.8-20.4,0-28.3,7.8-7.8,20.4-7.8,28.3,0l119.7,119.7,119.7-119.7c7.8-7.8,20.4-7.8,28.3,0,7.8,7.8,7.8,20.4,0,28.3l-133.8,133.8c-3.9,3.9-9,5.8-14.1,5.8h0Z"/>
</svg>