<?xml version="1.0" encoding="UTF-8"?>
<svg id="Calque_1" xmlns="http://www.w3.org/2000/svg" version="1.1" viewBox="0 0 512 512">
  <!-- Generator: Adobe Illustrator 29.6.0, SVG Export Plug-In . SVG Version: 2.1.1 Build 207)  -->
  <defs>
    <style>
      .st0 {
        fill: lime;
      }
    </style>
  </defs>
  <path class="st0" d="M381.1,107.5c4.4,10.6,12.7,19,23.3,23.3l37,15.3c10.6,4.4,19,12.8,23.3,23.3,4.4,10.6,4.4,22.4,0,33l-15.3,37c-4.4,10.6-4.4,22.4,0,33l15.3,37c2.2,5.2,3.3,10.8,3.3,16.5,0,5.7-1.1,11.3-3.3,16.5-2.2,5.2-5.3,10-9.3,14-4,4-8.8,7.2-14,9.3l-37,15.3c-10.6,4.4-19,12.7-23.3,23.3l-15.3,37c-4.4,10.6-12.8,19-23.3,23.3-10.6,4.4-22.4,4.4-33,0l-37-15.3c-10.6-4.4-22.4-4.4-33,0l-37,15.3c-10.6,4.4-22.4,4.4-33,0-10.6-4.4-18.9-12.8-23.3-23.3l-15.3-37c-4.4-10.6-12.7-19-23.3-23.3l-37-15.3c-10.6-4.4-18.9-12.8-23.3-23.3-4.4-10.6-4.4-22.4,0-33l15.3-37c4.4-10.6,4.4-22.4,0-33l-15.3-37c-2.2-5.2-3.3-10.8-3.3-16.5,0-5.7,1.1-11.3,3.3-16.5,2.2-5.2,5.3-10,9.3-14,4-4,8.8-7.2,14-9.3l37-15.3c10.6-4.4,18.9-12.7,23.3-23.3l15.3-37c4.4-10.6,12.8-19,23.3-23.3,10.6-4.4,22.4-4.4,33,0l37,15.3c10.6,4.4,22.4,4.4,33,0l37-15.3c10.6-4.4,22.4-4.4,33,0,10.6,4.4,19,12.8,23.3,23.3l15.3,37h0Z"/>
</svg>