<?xml version="1.0" encoding="UTF-8"?>
<svg id="Calque_1" xmlns="http://www.w3.org/2000/svg" version="1.1" viewBox="0 0 512 512">
  <!-- Generator: Adobe Illustrator 29.6.0, SVG Export Plug-In . SVG Version: 2.1.1 Build 207)  -->
  <defs>
    <style>
      .st0 {
        fill: #58af58;
      }
    </style>
  </defs>
  <path class="st0" d="M182.4,89.9c-60.9,0-118.5,21.3-161.8,66v28.3c50-63.2,125.7-85.7,204.9-71.9-76.8-.7-151.7,30.3-204.9,93.4v30.6c50-71.5,126.1-106.4,204.8-105.5-74.4,9.9-143.6,62.4-199.1,149.5l-4.3,6.7,6,5.3c1.8,1.6,3.7,3.2,5.5,4.8,59.5,65.9,147.4,108,236,122.1,81.5,13,164,2.3,225.5-37.6v-22.7c-57.1,42.1-139.7,55-222.5,41.9-9.3-1.5-18.6-3.3-27.9-5.4,90.4,10.6,183.5-8.2,250.4-59.7v-24.2c-45.2,39.5-107.3,61.3-173,66.2,55.1-13.2,110.3-41.8,164.6-85.1l7-5.6-5.3-7.2c-12-16.4-24.2-31.4-36.6-45.1-59-75.2-136-122.7-212.7-138.8-16.7-3.5-33.4-5.5-49.9-5.9-2.2,0-4.5,0-6.7,0h0ZM261.3,138.3c7.2,8.6,13.2,18,18.2,27.9-13,4.9-22.3,17.4-22.3,32.2s15.4,34.4,34.4,34.4,3.9-.2,5.8-.5c4.9,54.4-10.4,111.4-36.1,145.4-43.7-59.2-50.7-172.4,0-239.4h0ZM215.3,151.5c-41.7,17.9-70.9,59.2-70.9,107.5s27.1,86.5,66.3,105.4c-44.1-6.8-87.5-24.8-129.9-54.2-7.7-22.9-9-45.9-2.8-68.8,41.9-49.5,88.7-79.8,137.3-89.8h0ZM332.5,166.3c34.5,15.7,69.3,41.8,103.4,79,5.1,20.8,4.2,41.6-2,62.3-37.1,24.2-74.1,41-110.7,50.5,33-20.6,55-57.3,55-99.2s-17.9-71.3-45.7-92.7h0ZM513.6,365.9v2.1c.3-.3.7-.6,1.1-.9l-1.1-1.3h0Z"/>
</svg>