<?xml version="1.0" encoding="UTF-8"?>
<svg id="Calque_1" xmlns="http://www.w3.org/2000/svg" version="1.1" viewBox="0 0 512 512">
  <!-- Generator: Adobe Illustrator 29.6.0, SVG Export Plug-In . SVG Version: 2.1.1 Build 207)  -->
  <defs>
    <style>
      .st0 {
        fill: #f4f4f4;
      }
    </style>
  </defs>
  <path class="st0" d="M221.3,16c-13.1,0-23.7,10.6-23.7,23.7v106.4c0,3.4.8,6.7,2.2,9.7-.4,4.8.7,9.6,3.2,13.8l41.8,71.6-79,55.4,6.1-48.6c1-7.9-2.1-15.8-8.2-21l-66.3-81.9c-8.2-10.2-23.1-11.7-33.3-3.5h0l-9.2,7.4c-10.2,8.2-11.8,23.1-3.5,33.3h0l59.8,73.9-11.2,89.9c-1.2,9.8,3.8,19.3,12.5,23.9l37.5,53.5c.7,1,1.5,1.9,2.3,2.8.5,8.7,5.7,16.4,13.6,20.1l96.3,45c3.1,1.5,6.5,2.2,10,2.2,7.7,3.6,16.6,2.8,23.5-2.1l87.2-60.9c10.7-7.5,13.3-22.3,5.8-33h0l-6.8-9.7c-7.5-10.7-22.2-13.4-33-5.9l-72.4,50.7-59.1-27.6,120.6-84.6c2.1-1.5,4-3.4,5.5-5.5,6.6-2.2,12-7.1,14.6-13.6l37.2-91.5,87.8-44.8c11.7-6,16.3-20.2,10.3-31.9h0l-5.4-10.6c-5.9-11.7-20.2-16.3-31.9-10.3h0l-94.7,48.4c-4.1,2.1-7.6,5.4-9.8,9.4-3.7,2.6-6.6,6.2-8.3,10.5l-27.4,67.3-5.2-7.4c-.4-3.1-1.4-6.1-3-8.8l-50.8-87.1V39.7c0-13.1-10.6-23.7-23.7-23.7h-11.9ZM77.8,376c-33.1-1-60.8,25.1-61.7,58.2v1.8c0,33.1,26.9,60,60,60s60-26.9,60-60-25.8-59.1-58.2-60h-.1Z"/>
</svg>