<?xml version="1.0" encoding="UTF-8"?>
<svg id="Calque_1" xmlns="http://www.w3.org/2000/svg" version="1.1" viewBox="0 0 512 512">
  <!-- Generator: Adobe Illustrator 29.6.0, SVG Export Plug-In . SVG Version: 2.1.1 Build 207)  -->
  <defs>
    <style>
      .st0 {
        fill: #d3923c;
      }
    </style>
  </defs>
  <path class="st0" d="M162.2,21.3c-183.9,106.7,52,227.4-10.2,332.5-35.1,59.3-113.9-28.3-108.3-126.8-49.8,126.4-13.5,216.7,51.5,265.8,1.4.3,17.6.5,41.2.6-28.5-16.9-32.1-75.4,32.8-103.2l15.8-7-2.9,16.9c-1.4,8.3-.3,14,1.2,16.9,1.5,3,3.1,3.5,5.8,4.1,5.5,1.1,17-2.4,26.3-14.6,18.6-24.5,29.1-80.2-26.9-167l-4.1-6.4-13.9-19.2,23.2,9.9,5.2,1.8c80.9,25.5,135.3,58.5,174.6,112.7,21.5-22.9,38.7-56.8,43.8-91.7l3.5-27.5,13.4,24c25.5,45.8,30.3,104.9,11.1,156.5-14.2,38.3-42,72.3-84,93.5,13.6,0,24,0,25.2.1,154.8-34.8,139.3-245-14.2-394.1,0,.7,0,1.5,0,2.2,79,185.9-136.5,189.1-119.2,11.5-41.7,100.5-132.9-2.1-91.1-91.3h0ZM269.1,332.2c13.5,15.8,22.4,33.1,22.8,50.8.6,24-9.3,47.1-24.5,66.6-14.8,18.9-34.8,34.6-56.6,43.7,33.1,0,64.9-.2,95.2-.2v-.2c30.9-18.6,47.2-38.8,53.7-57.8,6.4-19,3.2-37.2-5.8-53.7-15.4-28-49.7-47.7-84.7-49.1h0Z"/>
</svg>