<?xml version="1.0" encoding="UTF-8"?>
<svg id="Calque_1" xmlns="http://www.w3.org/2000/svg" version="1.1" viewBox="0 0 512 512">
  <!-- Generator: Adobe Illustrator 29.6.0, SVG Export Plug-In . SVG Version: 2.1.1 Build 207)  -->
  <defs>
    <style>
      .st0 {
        fill: #ff884d;
      }
    </style>
  </defs>
  <path class="st0" d="M254.2,416.6c16.7-.2,46.1-22.5,46.1-22.5h0c46.4-33.7,84.1-106.5,41.7-192.4-20,102.9-103.1-43.3-58-99.3-84.6,25.5-38.2,86.9-59.9,119.8-22.8,34.4-69.5,27.9-54.2-61.7-69,106.3,4.5,208.7,52.4,245.3,0,0,16.6,11,31.9,10.8Z"/>
  <path class="st0" d="M284.3,102c0,.1-.2.2-.3.3.2,0,.3,0,.5-.1l-.2-.2Z"/>
  <path class="st0" d="M443.2,36.5c-122.1,21.8-245.1,24.4-374.3,0l-10.6-2h0v10.8c0,96.4,8.9,180.9,37.6,253.1,28.7,72.1,77.5,131.5,155.4,176.5l4.5,2.6,4.5-2.6c76.2-44,125.1-103.3,154.3-175.5,29.3-72.3,39.2-157.3,39.2-254.1v-10.7l-10.5,1.9ZM398,292.6c-27.4,67.6-71.8,122.2-142.2,164.1-72.2-42.8-116.5-97.6-143.3-165.1-26.3-66.2-35.5-145-36.2-235.7,123.8,22,242.3,19.7,359.3-.2-.8,91-10.8,170.4-37.7,236.9Z"/>
</svg>