<?xml version="1.0" encoding="UTF-8"?>
<svg id="Calque_1" xmlns="http://www.w3.org/2000/svg" version="1.1" viewBox="0 0 512 512">
  <!-- Generator: Adobe Illustrator 29.6.0, SVG Export Plug-In . SVG Version: 2.1.1 Build 207)  -->
  <defs>
    <style>
      .st0 {
        fill: #ff884d;
      }
    </style>
  </defs>
  <path class="st0" d="M425.9,361.7c.2,89.2-89.2,136.3-174.1,131.4-104.9-6.1-154.1-72.3-161.2-149.2-5.7-62.8,25.6-123.2,58.5-157.4-1.1,13.7,0,28.2,7.6,39.7,7.5,11.5,22.7,18.8,35.5,13.8,16.2-6.3,20.7-27.9,16.5-44.8-4.2-16.9-14.4-31.8-18.5-48.8-6.6-27.5,4.1-57.1,22.6-78.5,18.5-21.4,44-35.6,70-46.6-15.7,18.4-17.8,47.1-4.9,67.5,12.3,19.5,34.8,29.7,52.2,44.8,29.3,25.4,43.4,70,26.9,105-4.5,9.5-10.9,17.9-15.4,27.4-4.5,9.5-6.9,20.7-2.9,30.4,4,9.7,16.3,16.2,25.5,11.3,10.7-5.7,10.8-22.8,4.7-39.4,36.3,13.6,57,54.2,57.1,93.3Z"/>
</svg>