<?xml version="1.0" encoding="UTF-8"?>
<svg id="Calque_1" xmlns="http://www.w3.org/2000/svg" version="1.1" viewBox="0 0 512 512">
  <!-- Generator: Adobe Illustrator 29.6.0, SVG Export Plug-In . SVG Version: 2.1.1 Build 207)  -->
  <defs>
    <style>
      .st0 {
        fill: #9b663a;
      }
    </style>
  </defs>
  <path class="st0" d="M51.1,24.3v11.3c0,100.8,9.3,189.2,39.3,264.6,30,75.4,81,137.5,162.5,184.6l4.7,2.7,4.7-2.7c79.7-46,130.8-108,161.3-183.5,30.6-75.6,41-164.5,41-265.7v-11.2l-11,2c-127.7,22.8-256.3,25.5-391.4,0l-11.1-2.1h0ZM445.7,46.5c-.8,95.2-11.3,178.2-39.4,247.7-28.6,70.7-75.1,127.8-148.7,171.6-75.5-44.8-121.8-102.1-149.8-172.6-27.5-69.2-37.1-151.6-37.8-246.5,129.5,23,253.4,20.6,375.8-.2ZM287.6,95.1c-89.1,26.6-40.4,91-63.1,125.4-23.8,36-72.7,29.2-56.7-64.5-70.9,81.1-2.6,220.4,54.8,256.5-16.1-14.8-26.8-40-26.8-68.7s.9-16.3,2.6-23.8c7.3,19.8,24.3,33.8,44.1,33.8s47.8-24.8,47.8-55.4-2.4-19.6-6.5-27.8c19.2,13.8,32.3,41.4,32.3,73.2s-8.1,47.3-20.8,62.4c52.3-32,99.5-111.9,52.5-207.1-21,107.8-108.1-45.9-60.4-104.2h0Z"/>
</svg>