<?xml version="1.0" encoding="UTF-8"?>
<svg id="Calque_1" xmlns="http://www.w3.org/2000/svg" version="1.1" viewBox="0 0 512 512">
  <!-- Generator: Adobe Illustrator 29.6.0, SVG Export Plug-In . SVG Version: 2.1.1 Build 207)  -->
  <defs>
    <style>
      .st0 {
        fill: #8affff;
      }
    </style>
  </defs>
  <path class="st0" d="M255.1,15.5C123.6,15.5,16.4,122.6,16.4,254.1s107.2,237.7,238.7,237.7,238.6-106.1,238.6-237.7S386.6,15.5,255.1,15.5h0ZM255.1,33.8c121.4,0,219.3,98.9,219.3,220.3s-97.9,219.3-219.3,219.3S35.8,375.5,35.8,254.1,133.7,33.8,255.1,33.8h0ZM255,53.1c-111,0-200.8,89.8-200.8,200.8s89.8,200.8,200.8,200.8,200.8-89.8,200.8-200.8S366,53.1,255,53.1h0ZM254.2,69.6l12.3,62.7,51-21.1-46.1,46.1,6.2,31.7-12.5,3.3,7.9,29.3,29.3-7.9-3.2-12.1,31.3-10.7,16.8-62.8,7.2,54.6,60.3-20.6-48.3,42.2,42.4,33-61.6-16.2-24.2,21.2-10-10-21.5,21.5,21.5,21.5,9.2-9.2,24.7,21.6,62.7-16.8-43.6,33.5,48.2,42.1-61-20.8-7.4,53.2-16.8-61.5-30.2-10.3,3.6-13.3-29.3-7.9-7.9,29.3,12.5,3.3-6.2,31.6,46.1,46.1-51-21.1-12.3,62.8-12.4-63-49.6,20.1,44.7-45.1-6.1-31.2,13.2-3.5-7.9-29.3-29.3,7.9,3.6,13.5-29.3,10-16.8,61.4-7.4-53.2-60.9,20.8,48.2-42.1-43.6-33.5,62.7,16.8,24-21,8.8,8.8,21.5-21.5-21.5-21.5-9.6,9.6-23.6-20.6-61.7,16.2,42.5-33-48.3-42.2,60.3,20.6,7.2-54.5,16.8,62.8,30.4,10.4-3.3,12.3,29.3,7.9,7.9-29.3-13.2-3.5,6.2-31.2-44.7-45.1,49.6,20.1,12.4-63h0Z"/>
</svg>