<?xml version="1.0" encoding="UTF-8"?>
<svg id="Calque_1" xmlns="http://www.w3.org/2000/svg" version="1.1" viewBox="0 0 512 512">
  <!-- Generator: Adobe Illustrator 29.6.0, SVG Export Plug-In . SVG Version: 2.1.1 Build 207)  -->
  <defs>
    <style>
      .st0 {
        fill: #962742;
      }
    </style>
  </defs>
  <rect class="st0" x="34" y="144.9" width="204.5" height="95.8"/>
  <rect class="st0" x="273.6" y="144.9" width="204.5" height="95.8"/>
  <rect class="st0" x="161.8" y="272.6" width="188.5" height="95.8"/>
  <path class="st0" d="M238.4,400.4v79.9H83.5c-2.1,0-20.4-9.1-23.8-11.4-24.6-16.9-28.2-40.1-25.8-68.5h204.5Z"/>
  <path class="st0" d="M478,400.4c2.4,28.4-1.1,51.6-25.8,68.5-3.3,2.3-21.6,11.4-23.8,11.4h-154.9v-79.9h204.5Z"/>
  <rect class="st0" x="161.8" y="33.1" width="188.5" height="79.9"/>
  <rect class="st0" x="34" y="272.6" width="92.6" height="95.8"/>
  <rect class="st0" x="385.4" y="272.6" width="92.6" height="95.8"/>
  <path class="st0" d="M126.6,33.1v79.9H34C25,52.3,71.7,25.3,126.6,33.1Z"/>
  <path class="st0" d="M478,112.9h-92.6V33.1c54.9-7.7,101.6,19.3,92.6,79.9Z"/>
</svg>