<?xml version="1.0" encoding="UTF-8"?>
<svg id="Calque_1" xmlns="http://www.w3.org/2000/svg" version="1.1" viewBox="0 0 512 512">
  <!-- Generator: Adobe Illustrator 29.6.0, SVG Export Plug-In . SVG Version: 2.1.1 Build 207)  -->
  <defs>
    <style>
      .st0 {
        fill: #efff94;
      }
    </style>
  </defs>
  <path class="st0" d="M256,21.9l-4,2c-96,48-93.5,47.2-189.5,63.2l-8.6,1.4,1.2,8.6c16.1,120.9,48.3,217.9,85,285.1,18.3,33.6,37.8,59.9,57.3,78,19.5,18.2,39.3,28.7,58.6,28.7s39.1-10.5,58.6-28.7,38.9-44.4,57.3-78c36.7-67.3,68.9-164.2,85-285.1l1.1-8.6-8.6-1.4c-96-16-93.5-15.2-189.5-63.2l-4-2h.1ZM224,64c10.7,0,21.3,5.3,32,16,10.7-10.7,21.3-16,32-16-10.7,10.7-16,21.3-16,32l2.7,48h109.2s16.2,0,32.2-16c0,10.7-5.3,21.3-16,32,10.7,10.7,16,21.3,16,32-16-16-32.2-16-32.2-16h-107.4l11.6,208s0,32,16,64c-16,0-48,0-48-16,0,16-32,16-48,16,16-32,16-64,16-64l11.6-208h-107.4s-16.1,0-32.1,16c0-10.7,5.3-21.3,16-32-10.7-10.7-16-21.3-16-32,16,16,32.1,16,32.1,16h109.2l2.7-48c0-10.7-5.3-21.3-16-32h-.2Z"/>
</svg>