<?xml version="1.0" encoding="UTF-8"?>
<svg id="Calque_1" xmlns="http://www.w3.org/2000/svg" version="1.1" viewBox="0 0 512 512">
  <!-- Generator: Adobe Illustrator 29.6.0, SVG Export Plug-In . SVG Version: 2.1.1 Build 207)  -->
  <defs>
    <style>
      .st0 {
        fill: #7cedea;
      }
    </style>
  </defs>
  <path class="st0" d="M259.3,23.2c-68.1,0-136.6,10.4-204.4,31.5l-6.1,2.8-.3,6.5c0,95.3,9.7,178.6,40.3,250s82.3,130.2,165.3,174.6l4.7,2.3,4.1-2.3c81.1-43.4,133.5-101.9,164.7-173.5,31.2-71.5,41.5-155.5,41.5-251.1v-7l-6.4-2.3c-67.2-21.1-135.1-31.5-203.2-31.5h-.2ZM259.3,41.9c63.7,0,127.4,10.2,190.4,29.2-.6,91.1-10.8,170.3-39.7,236.5-29,66.5-76.3,120.4-151.3,161.8-77-42.4-124.5-95.9-153-162.4-28.3-66-37.5-145.1-38-235.9,63.8-19.2,127.7-29.2,191.6-29.2h0ZM261.7,80.4l-55.9,32.4,30.1,52.2c-5.7,2.4-11,5.4-15.8,9.2l-30.1-52.2-55.8,32.4v63.8h60.5c-.4,3-.7,6.2-.7,9.3s.2,6.3.7,9.4h-60.5v64.6l55.7,32.3,30.3-52.5c4.8,3.8,10.1,6.9,15.8,9.3l-30.2,52.4,55.9,32.5,55.9-32.4-30.3-52.5c5.7-2.4,11-5.5,15.8-9.3l30.4,52.7,55.2-32v-65.1h-60.2c.4-3.1.7-6.2.7-9.4s-.2-6.3-.7-9.3h60.2v-64.3l-55.3-32-30.2,52.4c-4.8-3.8-10.1-6.9-15.8-9.2l30.2-52.3-55.8-32.3h-.1ZM261.6,178.4c27.2,0,49.2,22,49.2,49.2s-22,49.2-49.2,49.2-49.2-22-49.2-49.2,22-49.2,49.2-49.2Z"/>
</svg>