<?xml version="1.0" encoding="UTF-8"?>
<svg id="Calque_1" xmlns="http://www.w3.org/2000/svg" version="1.1" viewBox="0 0 512 512">
  <!-- Generator: Adobe Illustrator 29.6.0, SVG Export Plug-In . SVG Version: 2.1.1 Build 207)  -->
  <defs>
    <style>
      .st0 {
        fill: #e2e2e2;
      }
    </style>
  </defs>
  <path class="st0" d="M260.7,31.1c5.2.5,9.9,2.4,14.5,4.9l9.1-16.3c-6.4-3.8-13.9-6.1-20.7-7.3-.9,6.2-1.9,12.5-2.9,18.7ZM251.6,12.7c-7.6.5-14.1,2.5-21.1,6l8.3,16.7c5.1-1.9,9.6-3.7,14.6-4l-1.8-18.7ZM213.1,31.4c-5,5.2-9.8,11.7-12.7,17l16.3,9.1c3.1-4.7,5.9-9.1,9.6-12.8-4.3-4.5-9-8.8-13.2-13.3h0ZM301.2,33.3l-14,12.4c3.8,4,6.6,8.6,9.3,13.4l16.7-8.5c-3.5-6.3-7.8-12.5-12-17.3ZM192.4,67.4c-2.1,6.7-3.3,14.2-3.8,20.2l18.6,1.8c.6-6.2,1.4-10.7,3-16.5l-17.8-5.5ZM320.6,69.6c-6,1.9-12,3.4-18.1,4.9,1.1,5.6,2.2,11.8,2.7,16.6l18.7-1c-.8-7-1.8-14.3-3.3-20.5h0ZM207.4,106.2l-18.5,1.9c.4,7,2.6,14.3,4.3,20.1l17.8-5.7c-1.7-5.8-2.9-11-3.6-16.3ZM304.6,107.9c-.8,5.7-2.4,11.2-4,16.2l17.5,6.6c2.3-6.7,4.1-14,5-20l-18.5-2.8ZM217.9,137.3s-11.5,5.4-16.1,6.7c0,0,4.8,9.6,6.9,17.1,7.6-2.2,15.5-3.2,23.3-4.5-4.7-6.9-10.5-13.4-14.1-19.3h0ZM293.2,139c-4.2,6.3-9.2,12-13.9,17.9,7.8,2.1,16,2.7,23.6,5.5,0,0,4.4-12.9,6.1-17.7-5.7-1.9-15.8-5.7-15.8-5.7h0ZM184.3,151.7c-6.6,4.4-11.1,8.1-16.1,13.4l13.5,12.9c4.6-4.5,7.8-7.5,12.6-10.5l-10-15.8ZM327.9,154.5l-10.8,15.2c4.6,3.1,8.7,6.9,12.3,11.1l13.9-12.5c-5.4-5.6-9.4-9.8-15.4-13.8ZM155.8,181.9c-3.5,5.7-6.3,11.8-8.7,18l17.4,6.9c2-5.4,4.5-10.7,7.5-15.6l-16.2-9.3ZM355.3,185.1l-16.2,9.2c2.8,5.1,5.4,10.4,7.6,15.8l17.3-7.1c-2.4-6.2-5.5-12.1-8.7-17.9h0ZM141.1,218.9c-1.6,6.2-3,12.7-3.8,19.2l18.4,2.8c.8-5.9,2.2-11.7,3.5-17.5l-18.1-4.5ZM370.2,221.9l-18.1,4.8c1.8,5.7,2.6,11.5,3.8,17.4l18.4-3.1c-1.1-6.4-2.3-12.8-4.1-19.1h0ZM135.1,257.4c-.5,6.8-.6,12.6-.6,19.3h18.7c.1-6.3.2-12.9.6-18l-18.7-1.3ZM376.7,260.3l-18.7,1.5c.5,5.8.8,12,.8,18h18.7c-.1-7.1-.4-13.3-.8-19.5ZM153.7,294.9l-18.7,1c.4,6.4,1,12.7,1.7,19.1l18.6-2c-.8-6-1.2-12.1-1.6-18.1ZM358.2,297.8c-.2,6-1,12-1.7,18l18.5,2.4c1-6.3,1.4-12.7,1.9-19.1l-18.7-1.3ZM139,329.6c.5,6.3,2,12.9,2.9,18.3h20.3v-18.7c-7.7-.2-15.4.1-23.2.4h0ZM180.9,329.2c-.1,6.4,0,12.3,0,18.7l19.2-.5c-.5-6.1-.9-12.1-1.2-18.2h-18ZM310.9,329.2c-.5,6.3-1,12.7-1.5,19l18.7,1.4-.2-20.4h-17ZM346.6,329.2v18.7h23.2c1.3-6.4,2.3-11.6,3.4-18-8.8-.9-17.7-.7-26.6-.7ZM201.3,366.1l-18.6,1.2,1.2,18.7,18.6-1.3-1.2-18.6ZM308,366.8l-1.3,18.6,18.6,1.4,1.4-18.6-18.7-1.4ZM247.8,378.7v18.7h18.6v-18.7h-18.6ZM203.8,403.4l-18.7,1.2,1.3,18.7,18.6-1.3-1.2-18.6ZM305.3,404.1l-1.4,18.6,18.6,1.4,1.4-18.6-18.6-1.4ZM247.8,416.1v18.7h18.6v-18.7h-18.6ZM206.2,440.7l-18.6,1.2,1.2,18.7,18.7-1.3-1.3-18.6ZM302.5,441.3l-1.4,18.7,18.6,1.4,1.4-18.7-18.6-1.4ZM247.8,453.5v18.7h18.6v-18.7h-18.6ZM208.7,478l-18.7,1.2c.5,6.8.9,13.6,1.4,20.4h15.7l1.6-21.6ZM299.7,478.6l.8,21h16.4c.4-6.5,1-13.1,1.5-19.6l-18.7-1.4ZM225.8,480.9v18.7h18.6v-18.7h-18.6ZM263.1,480.9v18.7h18.7v-18.7h-18.7Z"/>
</svg>