<?xml version="1.0" encoding="UTF-8"?>
<svg id="Calque_1" xmlns="http://www.w3.org/2000/svg" version="1.1" viewBox="0 0 512 512">
  <!-- Generator: Adobe Illustrator 29.6.0, SVG Export Plug-In . SVG Version: 2.1.1 Build 207)  -->
  <defs>
    <style>
      .st0 {
        fill: #f4f2d7;
      }
    </style>
  </defs>
  <path class="st0" d="M20.7,19.3v39.7l130.8,73.8,94.9-45.1L151,19.3s-130.3,0-130.3,0ZM217.7,19.4l95.3,57.3-45.5,21.7h0c0,0-96,45.7-96,45.7h0l-113.9,54.2,161.5,86.1,59.6-39.2-39.3-34.8,26.4-13.1h0c0,0,78.9-39.1,78.9-39.1h0c0,0,136.5-67.8,136.5-67.8l-93.7-70.9h-169.8,0ZM361.9,170.5l-76.5,37.9,44.8,25.3-37,24.4h0c0,0-55.3,36.4-55.3,36.4h0s-68.2,45-68.2,45l325.3,154.8-187.5-147.2,9.3-5.2h0s43.6-24.3,43.6-24.3h0s116-65.1,116-65.1l-114.3-81.9h0ZM375.1,330.6l-34,19,139.3,74.2-105.3-93.2h0Z"/>
</svg>