<?xml version="1.0" encoding="UTF-8"?>
<svg id="Calque_1" xmlns="http://www.w3.org/2000/svg" version="1.1" viewBox="0 0 512 512">
  <!-- Generator: Adobe Illustrator 29.6.0, SVG Export Plug-In . SVG Version: 2.1.1 Build 207)  -->
  <defs>
    <style>
      .st0 {
        fill: #894550;
      }
    </style>
  </defs>
  <path class="st0" d="M57.8,23.1c-1.5,29.1-2.2,55.6-2.3,80.3,6.6-2.7,13.7-4.3,21.2-4.3,31.2,0,56.9,25.6,56.9,56.9s-25.8,56.3-56.9,56.3-11.9-1-17.5-2.8c12.7,123.3,48.8,166.8,88.4,192.4,20.7,13.3,43,21.7,64.3,33.2,17.4,9.5,34.2,21.5,47.4,40.1,13.2-18.6,29.9-30.7,47.3-40.1,21.2-11.5,43.5-19.9,64.1-33.2,39.5-25.5,75.5-69.1,88.1-192.3-5.3,1.7-11,2.7-16.9,2.7-31.1,0-56.9-25.1-56.9-56.3s25.6-56.9,56.9-56.9,14.7,1.7,21.2,4.5c0-24.8-.7-51.3-2.3-80.5-59.5,13-130.8,19.3-201.5,19.9h-.2c-70.7-.6-142-6.9-201.5-19.9h0ZM361.9,62.5l-27.1,93.2-17.9-5.2,11.5-39.5-85.1,63.6-11.2-15,129.9-97.1h0ZM156.5,63.5l81.7,59.5-11,15.1-34.3-25,34.8,103.5-17.7,6-53.5-159.1h0ZM297,163.1l129.4,98-98.2-.5v-18.7c0,0,42.2.2,42.2.2l-84.7-64.1,11.3-14.9h0ZM174.6,200.8l10.8,15.2-36.2,25.8,104.9-.2v18.7s-163.5.3-163.5.3l84-59.8h0ZM292.4,221.8l17.8,5.7-49.4,155-31.2-96.5,17.8-5.8,13.3,41.1,31.7-99.6h0Z"/>
</svg>