<?xml version="1.0" encoding="UTF-8"?>
<svg id="Calque_1" xmlns="http://www.w3.org/2000/svg" version="1.1" viewBox="0 0 512 512">
  <!-- Generator: Adobe Illustrator 29.6.0, SVG Export Plug-In . SVG Version: 2.1.1 Build 207)  -->
  <defs>
    <style>
      .st0 {
        fill: #72af4a;
      }
    </style>
  </defs>
  <path class="st0" d="M256,106c-123,0-173.5,130-173.5,130,0,0,59.1-110,173.5-110s173.6,110,173.6,110c0,0-50.4-130-173.6-130ZM255.9,200.9v.6l-9.5,31.6-7.1-16.6s-8.8,58.5-103.4,46.6c54.4,26.3,74.2,56.6,80.8,79.3,2.4,8.3,8,15.1,15.4,19.1,7.5,3.8,16,4.4,23.9,1.5,7.9,2.9,16.5,2.3,23.9-1.5,7.4-4,12.9-10.8,15.3-19.1,6.8-22.7,26.7-53,80.8-79.3-94.5,11.9-103.2-46.6-103.2-46.6l-7.1,16.6-9.6-31.6v-.6.3c-.1,0-.2-.3-.2-.3ZM114.6,302.7c-40.1-.8-82.4,27.9-98.6,64,0,0,55.9-31.6,89.2-36-46.6,24.7-60.7,69.6-60.7,69.6l82.8-37.2s-24.3,37.4-39.2,84.4c44.1-17,70.5-54.2,70.5-54.2,0,0,1.5,28.7-23,73.7,41.9-20.6,47.3-53.1,47.3-53.1l18,36.6c1.6-108.3-40.9-146.9-86.3-147.8ZM397.5,302.7c-45.4.9-87.9,39.5-86.5,147.8l18.3-36.6s5.3,32.5,47.1,53.1c-24.4-45-22.9-73.7-22.9-73.7,0,0,26.3,37.2,70.4,54.2-14.8-47-39.1-84.4-39.1-84.4l82.7,37.2s-14-44.9-60.7-69.6c33.3,4.4,89.2,36,89.2,36-16.2-36.1-58.6-64.8-98.5-64ZM245.3,322.5l-.3,31.4c-29.6-19.1.3-31.4.3-31.4ZM266.7,322.5s30,12.3.3,31.4l-.3-31.4Z"/>
</svg>