<?xml version="1.0" encoding="UTF-8"?>
<svg id="Calque_1" xmlns="http://www.w3.org/2000/svg" version="1.1" viewBox="0 0 512 512">
  <!-- Generator: Adobe Illustrator 29.6.0, SVG Export Plug-In . SVG Version: 2.1.1 Build 207)  -->
  <defs>
    <style>
      .st0 {
        fill: #705120;
      }
    </style>
  </defs>
  <path class="st0" d="M161.9,17.3c-32.7,0-63.8,8.2-89,24.2-28.8,18.2-49.8,47.1-55.8,84.2s2.8,81.9,31.2,133c19.8,35.7,44.3,63.8,59.7,93.5,7,13.5,12.3,27.3,14.8,42.5-.2.4-.5.7-.8,1.1l1,.7c1.4,9.6,1.7,19.9.5,31-14.6,2.8-25.7,15.7-25.7,31.2s14.2,31.8,31.8,31.8,31.8-14.2,31.8-31.8-8-24.4-19.4-29.2c1-10.2,1-19.9,0-29.1,9.2-10.8,19.9-16.3,33.2-18.2,14.7-2.1,32.7.8,53.3,8.1,5.1,9.7,9.7,20.1,13.7,31.1-9.1,5.4-15.3,15.4-15.3,26.8,0,17.1,13.9,31,31,31s31-13.9,31-31-12.5-29.7-28.4-31c-4-11.6-8.7-22.4-13.9-32.6,10.1-9.8,27.5-16.6,47.6-20.6,22-4.3,46.7-5.4,67.4-6,7,6.4,13.9,13.1,20.6,20.2-.6,2.3-.8,4.6-.8,7.1,0,16.4,13.3,29.6,29.6,29.6s29.6-13.3,29.6-29.6-13.2-29.6-29.6-29.6-13.3,2.4-18.3,6.4c-6.5-6.7-13.1-13-19.8-19.1-1-49.1,13.3-87.6,37.8-119.2,8.9-2.3,18-5.5,27.4-9.7,5.7,5.7,13.6,9.2,22.3,9.2,17.5,0,31.8-14.2,31.8-31.8s-14.2-31.8-31.8-31.8-31.8,14.2-31.8,31.8.2,4.1.6,6.1c-7.8,3.5-15.3,6.2-22.5,8-15.5-19.9-16.9-35.5-12.6-52.8,4.6-18.4,17.3-38.6,30-61.9,6.3-4,11.9-8.9,16.7-14.6,5.5,4.2,12.3,6.6,19.7,6.6,17.9,0,32.5-14.5,32.5-32.5s-14.5-32.5-32.5-32.5-32.5,14.5-32.5,32.5.5,6.7,1.5,9.8c-11.2,16.8-32.8,26.2-58.9,26.7-26.5.5-57-8.6-82.7-27.2-39.2-28.6-84.2-42.3-126.3-42.3h0ZM208.7,42.3c18.6,4.8,37.1,12.5,54.7,23.2v14.8c-1.4-1.1-2.8-2.3-4.3-3.4-15.7-12.1-32.2-23.7-49.9-32.7l-.5-1.8h0ZM141.8,45.5c1.7,0,3.4,0,5.1,0l4.6,15.8c-11.2-5.2-22.9-9.4-35.3-12.1,8.8-2.4,17.3-3.6,25.6-3.8h0ZM167.1,48.2c3.4.8,6.7,1.7,10,2.7,5.5,1.7,10.8,3.9,16.2,6.3l9.8,36.9c-9.1-7.3-18.6-14.1-28.5-20.3l-7.5-25.7ZM104.3,66c18.5,3,35.5,9.7,51.6,18.7l-10.8,18.6c-13.2-12.9-26.6-25.5-40.8-37.3h0ZM215.8,69.4c10.8,6.6,21.4,14.3,31.8,22.3,5.4,4.1,10.7,8.3,15.9,12.6l.3,44.1c-11.7-10.7-23.6-21.9-35.8-32.9l-12.2-46h0ZM282.2,78.2c12.7,8.5,26.2,15.1,39.9,19.6l.7,28.2c-13-8.7-26.5-19.6-40.5-30.9v-17c0,0,0,0,0,0ZM89.9,78.4c15.6,13,30.6,27.3,45.3,42.1l-13.8,23.9c-12.7-18.9-23.3-40.5-31.5-66h0ZM73.1,87.1c0,.2.2.5.2.7h-.3c0-.3,0-.5,0-.7h0ZM171.8,94.6c13.7,9.2,26.8,20,39.7,31.3l.5,1.8-16.5,26.4c-12.2-12.3-24.4-24.7-36.6-37.1l13-22.4h0ZM396.5,102.5c-8.2,14.6-15.8,29-19.8,44.3-11.2.2-22.8-3.2-34.9-9.3l-.8-34.6c10.2,2,20.4,3,30.3,2.8,8.7-.2,17.2-1.2,25.3-3.1h0ZM53.6,110.5c.3,21.8,3.7,41.3,9.4,58.9l-16.2-3.4c-.6-16,1.4-34.2,6.8-55.5h0ZM86,119.2c6.5,13.7,13.8,26.2,21.8,37.8l-13.6,5.7c-4.9-13-7.8-27.3-8.2-43.5h0ZM282.4,119.3c10.6,8.4,21.2,16.5,31.8,23.5,3,2,6,3.9,9.1,5.7l1.1,45.7c-14.1-7.7-27.9-17.8-41.7-29.4l-.3-45.5h0ZM148.9,134.2c11.9,12.2,23.9,24.5,36.1,36.7l-16.4,26.3c-12.6-11.1-24.3-23-35-36.4l15.3-26.6h0ZM226.6,139.5c11.3,10.4,22.6,20.9,34.1,31,.8.7,1.6,1.4,2.3,2l-17.2,28.6c-12.7-10.6-24.9-21.9-36.8-33.6l17.6-28.1h0ZM342.2,158.2c10.3,4.3,20.9,7,31.8,7.2-.3,14.1,3.5,28.8,12.9,43.6-11,.8-21.3-.2-31.2-2.5-4.2-1-8.3-2.2-12.3-3.7l-1-44.6h0ZM119.2,172.3c9.9,12.5,20.7,23.8,32.1,34.2l-22.8,8c-9.4-9.6-17.7-19.8-24.3-31.2-.7-1.3-1.5-2.5-2.2-3.8l17.2-7.3h0ZM198.6,184.3c12,11.6,24.3,22.8,37.3,33.5l-12.4,20.6c-1.3-.9-2.7-1.8-4-2.7-12.7-8.5-24.9-17.2-36.5-26.5l15.6-25h0ZM277.5,184.8c14,11.3,28.5,21.4,43.9,29l-16.3,28.5c-15.8-8.6-30.5-18.5-44.6-29.3l16.9-28.2h0ZM49,185.6l22.1,4.7c5.3,11.7,11.7,22.6,18.7,32.9l-27.5-1.9c-6-10.7-10.7-22.4-13.3-35.6h0ZM167.5,220.7c11.4,9.4,23.3,18.1,35.5,26.4l-24.2,8.2c-4.5-3.1-8.9-6.2-13.3-9.4-7.4-5.4-14.7-11-21.5-16.9l23.6-8.3h0ZM338.8,221.1c4.1,1.4,8.2,2.6,12.4,3.6,10.9,2.6,22.3,3.7,34.2,3-7.7,12.1-14.1,25.1-19.1,39.1-15.8-4.2-30.5-9.6-44.5-16l16.9-29.7h0ZM250.7,229.5c14.2,10.7,29.1,20.6,45.1,29.2l-10.8,18.9c-15.5-9.9-30.9-19.4-45.8-29l11.5-19.2h0ZM123.7,236.1c9.7,9,20.1,17.2,30.7,24.9.8.6,1.5,1.1,2.3,1.7l-6.7,2.2c-3.2-3.3-6.3-6.5-9.4-9.8-6-6.3-11.7-12.6-17.2-18.9l.4-.2h0ZM75.5,240.8l27.1,1.9h1.9c0,.1,0,0,0,0,7.1,8.7,14.7,17.1,22.4,25.2,0,0,.1.1.2.2l-25.8.9c-6.9-6.7-13.6-13.5-19.6-20.6-2.2-2.6-4.3-5.1-6.3-7.8h0ZM222.6,260.3c15.1,9.8,30.4,19.3,45.7,29.1l-24.1,10.8c-1.6-1.2-3.3-2.5-4.9-3.7-12.8-9.5-26.8-18.7-41-28l24.3-8.2h0ZM312.5,267.2c15.1,7,31.2,13,48.4,17.6-3.4,13.4-5.5,27.5-6.2,42.5-17.7-14.5-35.9-27.3-54.1-39.3l11.8-20.7h0ZM175.9,275.9c17.1,11.5,34,22.2,48.8,32.9l-22.9,10.3c-12.1-14-24.8-26.9-37.2-39.5l11.3-3.8h0ZM144.7,286.3c11.5,11.7,23.2,23.4,34.4,35.7h-24.8c-10.7-12.6-22.4-23.8-33.9-34.8l23.5-.9h.8s0,0,0,0ZM93.8,288.2c11.7,11.3,23.7,22.3,34.8,33.8h-16.6c-7.2-11.3-14.9-22.4-22.7-33.6l4.5-.2h0ZM287.1,301.4c18.2,12,36.3,24.5,53.7,38.6-16.1.8-33.4,2.3-50.1,5.6-1.5.3-3.1.6-4.6.9-6.1-12.3-15.2-23.1-25.9-33.1l26.9-12.1h0ZM241.4,321.9c11.3,9.6,20.3,19.3,26.2,29.7-11.3,3.8-21.7,9-30.2,16.2-7.2-12-15.1-23.1-23.3-33.6l27.3-12.2h0ZM123,340.6h22.2c6.3,7.9,12.1,16.2,17,25.2-8.7,2.6-16.8,6.7-24,12.4-3.2-12.3-7.9-23.8-13.5-34.7-.5-1-1.1-2-1.6-3h0ZM168.7,340.6h26.7c6.8,8.3,13.2,16.9,19.3,26-11.5-2.8-22.6-4.2-33.1-3.8-3.8-7.9-8.2-15.3-12.9-22.2h0Z"/>
</svg>