<?xml version="1.0" encoding="UTF-8"?>
<svg id="Calque_1" xmlns="http://www.w3.org/2000/svg" version="1.1" viewBox="0 0 512 512">
  <!-- Generator: Adobe Illustrator 29.6.0, SVG Export Plug-In . SVG Version: 2.1.1 Build 207)  -->
  <defs>
    <style>
      .st0 {
        fill: #bababa;
      }
    </style>
  </defs>
  <path class="st0" d="M305.1,429.5l-53.5-53.5c-25.4-25.4-29.9-64-13.3-94.1l43.5,43.5c1,4.9,3.4,9.5,7.1,13.3l53.5,53.5c10.3,10.3,27,10.3,37.3,0l12.4-12.4c10.3-10.3,10.3-27,0-37.3l-53.5-53.5c-3.4-3.4-7.5-5.5-11.7-6.7l-44.4-44.4c30-16.1,68.2-11.5,93.4,13.7l53.5,53.5c30.9,30.9,30.9,81.1,0,111.9l-12.4,12.4c-30.9,30.9-81.1,30.9-111.9,0ZM174.9,211.1l127,127c10.1,10.1,26.6,10.1,36.7,0,10.1-10.1,10.1-26.6,0-36.7l-127-127c-10.1-10.1-26.6-10.1-36.7,0-10.1,10.1-10.1,26.6,0,36.7ZM230.1,273.7l-43.5-43.5c-4.9-1-9.5-3.4-13.3-7.1l-53.5-53.5c-10.3-10.3-10.3-27,0-37.3l12.4-12.4c10.3-10.3,27-10.3,37.3,0l53.5,53.5c3.4,3.4,5.5,7.5,6.7,11.7l44.4,44.4c16.1-30,11.5-68.2-13.7-93.4l-53.5-53.5c-30.9-30.9-81.1-30.9-111.9,0l-12.4,12.4c-30.9,30.9-30.9,81.1,0,111.9l53.5,53.5c25.4,25.4,64,29.9,94.1,13.3Z"/>
</svg>