<?xml version="1.0" encoding="UTF-8"?>
<svg id="Calque_1" xmlns="http://www.w3.org/2000/svg" version="1.1" viewBox="0 0 512 512">
  <!-- Generator: Adobe Illustrator 29.6.0, SVG Export Plug-In . SVG Version: 2.1.1 Build 207)  -->
  <defs>
    <style>
      .st0 {
        fill: #202060;
      }
    </style>
  </defs>
  <path class="st0" d="M179.8,20.7v81.3l-44-26.3,17.6,46.9-115.7-20.9,84.7,49.9H20v27.3l110.5,14.9,96.6-29.2c-11.3-11.9-18.6-30.7-18.6-52,0-35.9,20.9-65.1,46.6-65.1s46.6,29.1,46.6,65.1-7,39.4-18,51.3l99,29.9,112.5-15.2v-27.1h-101.1l84.7-49.9-120.4,21.8,17.9-47.7-48.7,29.1V20.7h-147.9ZM495.3,223.3l-112.5,22.4-55.4-13.1-28,118.3,16.6,145h51.7l-38.4-144.7,46.5,27.8-21.3-56.9,124.4,22.5-91.1-53.7h107.5v-67.6h0ZM20,223.7v67.2h108.8l-91.1,53.7,119.6-21.7-21,56,38.5-23-28.6,140h48.2l12.9-144.4-21.7-118.8-55.1,13.1-110.5-22Z"/>
</svg>