<?xml version="1.0" encoding="UTF-8"?>
<svg id="Calque_1" xmlns="http://www.w3.org/2000/svg" version="1.1" viewBox="0 0 512 512">
  <!-- Generator: Adobe Illustrator 29.6.0, SVG Export Plug-In . SVG Version: 2.1.1 Build 207)  -->
  <defs>
    <style>
      .st0 {
        fill: #f40b0b;
      }

      .st1 {
        fill: #f4f4f4;
      }
    </style>
  </defs>
  <g>
    <path class="st1" d="M264.3,260.7l33.6-35.1c5.1-5.3,13.6-5.4,18.8-.2l17.3,17.3c2.4,2.4,5.7,3.8,9.1,3.8l58.5,1c7.3.1,13.4-5.8,13.4-13.1v-5.4c0-7.3-5.9-13.1-13.1-13.1h-45.5c-3.6,0-7.1-1.5-9.6-4.1l-41.7-44.4c-9.9-10.6-23.8-16.6-38.4-16.6h-81.5c-3.6,0-7.1,1.5-9.6,4.1l-44.8,47.5c-4.8,5.1-4.8,13.1,0,18.1l3.9,4.1c4.9,5.1,12.9,5.4,18.2.8l43.6-38.5c2.4-2.1,5.5-3.3,8.7-3.3h0c11.5,0,17.5,13.8,9.6,22.2l-23.5,24.8c-10.5,11.1-16.4,25.8-16.6,41.1l-.5,49.4c0,7.2-5.9,13-13.1,13h-51c-7.3,0-13.1,5.9-13.1,13.1v5.9c0,7.3,5.9,13.1,13.1,13.1h85c7.3,0,13.1-5.9,13.1-13.1v-31.7c0-11.6,13.9-17.5,22.3-9.5l18.9,18.2c2.6,2.5,4,5.9,4,9.5v69.8c0,7.3,5.9,13.1,13.1,13.1h5.6c7.3,0,13.1-5.9,13.1-13.1v-97.4c0-2.8-.9-5.5-2.6-7.8l-19.7-26.6c-3.8-5.1-3.3-12.3,1.1-16.9Z"/>
    <circle class="st1" cx="309.4" cy="125.4" r="30.2"/>
  </g>
  <path class="st0" d="M256,20.7C125,20.7,18.4,127.3,18.4,258.3s106.6,237.6,237.6,237.6,237.6-106.6,237.6-237.6S387,20.7,256,20.7ZM453.7,258.3c0,42.5-13.5,81.9-36.4,114.1L141.9,97c32.3-22.9,71.6-36.4,114.1-36.4,109,0,197.7,88.7,197.7,197.7ZM58.3,258.3c0-52.2,20.3-99.6,53.4-135l279.3,279.3c-35.4,33.1-82.9,53.4-135,53.4-109,0-197.7-88.7-197.7-197.7Z"/>
</svg>