<?xml version="1.0" encoding="UTF-8"?>
<svg id="Calque_1" xmlns="http://www.w3.org/2000/svg" version="1.1" viewBox="0 0 512 512">
  <!-- Generator: Adobe Illustrator 29.6.0, SVG Export Plug-In . SVG Version: 2.1.1 Build 207)  -->
  <defs>
    <style>
      .st0 {
        fill: #4ec62c;
      }
    </style>
  </defs>
  <path class="st0" d="M372,16.3c-18.9,0-37.7,7.7-49.2,23.1-25.1-24.5-78.8-13.7-78.8,32.2s1.1,12.6,3.2,17.8h126.9l44,182.1h-75.6l-10.5,90.4c35.9.9,72.6-22.2,72.6-69.4v-.2c15.1,1.2,30.8-4.2,40.5-16.2,13.1,11.9,39.9,6.2,39.9-17s-17.8-26.2-31.5-21.8c-3.4-17-15.1-27.8-29-32.3,5.1-7,8.3-16.1,8.3-27.2,0-21.9-12.2-35.8-27.6-41.7.3-1.5.5-3.1.5-4.9s-.2-3.3-.5-4.8c15.9-9.4,27.4-26.3,27.4-50.7,0-39.6-30.2-59.5-60.5-59.5h0ZM98.7,39.7c-19.2-.1-38.2,10.7-43.6,35.4-12.8,58.6,76.6,78.1,89.4,19.4.5-2.2.8-4.4,1-6.5,11.7,3.2,25.7-1.6,29.1-17.2,5.8-26.8-29.9-37.6-42.4-18.4-9-8.2-21.3-12.7-33.5-12.8h0ZM160.8,108.2l-35,144.7h68.5l20.8,178.6h90l20.8-178.6h68.5l-35-144.7h-198.6,0ZM469.6,119.5c-10.8,0-21.6,7.1-21.6,21.3,0,28.3,43.2,28.3,43.2,0s-10.8-21.3-21.6-21.3h0ZM169.1,167.5l67.3,47.2-79.1,7.1,11.8-54.3h0ZM350.9,167.5l11.8,54.3-79.1-7.1,67.3-47.2h0ZM462.4,176.9c-7.4,0-14.9,4.9-14.9,14.6,0,19.5,29.7,19.5,29.7,0s-7.4-14.6-14.9-14.6h0ZM48.1,189.6c-15.7,0-31.4,10.3-31.4,30.9s28.9,37,47.5,27c1.3,63.1,85.4,71.1,107.7,24.1h-69.8l19.6-81.2c-16.5-.2-33.1,5.8-44.2,18.2-4.8-12.7-17.1-19-29.4-19h0ZM260,230.6l31.9,42.1-14.9,11.3-17-22.4-17,22.4-14.9-11.3,31.9-42.1h0ZM40.4,272.7c-7.4,0-14.9,4.9-14.9,14.6,0,19.5,29.7,19.5,29.7,0s-7.4-14.6-14.9-14.6h0ZM181.6,305.3c-15.2.7-29.9,11-29.9,30.9s2.2,14,5.8,18.9c-8.2,7.5-13.5,18.5-13.5,33.1,0,23.9,14.5,38.3,32,43.1-2.3,3.5-3.8,7.9-3.8,13.2,0,28.7,40.8,30.6,46.3,5.7h-20.1l-16.9-144.9ZM328.8,389l-7.1,61.2h-52.3c11.4,26.4,46.3,32.5,68.5,18.3,5.3,35.7,62.5,33.9,62.5-5.4s-24.9-35.6-43.3-28.9c0-1,0-2.1,0-3.2,0-22.2-12.6-36.2-28.4-42h0ZM482.4,395.6c-7.1,0-14.4,6-11.9,15.1,4.1,15.3,27.4,9,23.3-6.3-1.7-6.2-6.5-8.9-11.4-8.8h0ZM61.3,416.8c-13.1,0-26.3,8.6-26.3,25.8s13.1,25.8,26.3,25.8c-.3,1.4-.4,2.8-.4,4.4,0,26.5,40.4,26.5,40.4,0s-7.4-17.8-15.8-19.4c1.3-3.1,2-6.7,2-10.8,0-17.2-13.1-25.8-26.3-25.8h0ZM463,431.8c-5.6,0-11.2,3.1-13.7,8.2-13.4-8.7-36.4,2-31,22.1,6,22.6,37.1,17.1,39.7-2,9.7,2.8,22.2-4.8,18.8-17.6-2-7.5-7.9-10.7-13.8-10.7h0ZM130.1,433.6c-7.4,0-14.9,4.9-14.9,14.6,0,19.5,29.7,19.5,29.7,0s-7.4-14.6-14.9-14.6h0Z"/>
</svg>