<?xml version="1.0" encoding="UTF-8"?>
<svg id="Calque_1" xmlns="http://www.w3.org/2000/svg" version="1.1" viewBox="0 0 512 512">
  <!-- Generator: Adobe Illustrator 29.6.0, SVG Export Plug-In . SVG Version: 2.1.1 Build 207)  -->
  <defs>
    <style>
      .st0 {
        fill: #fff;
      }

      .st1 {
        fill: #c61a1a;
      }
    </style>
  </defs>
  <path class="st1" d="M494.8,242c-1.4-5.8-1.2-12.1-2-18.1-13.5-105.3-99.7-191.2-204.8-204.9-6-.8-12.4-.6-18.1-2h-28C37.8,28.4-58.8,279.9,87.1,425.3c145.6,145.3,396.4,48.6,407.7-155.3.5-9.3-.4-18.7,0-28h0ZM337.8,176.9c47.6-7.4,54.8,63.7,9.9,67.8-45,4.1-50.4-61.5-9.9-67.8ZM161.4,176.9c47.6-7.4,54.8,63.7,9.9,67.8-45,4.1-50.4-61.5-9.9-67.8ZM134,396l20-81.8h203.7l20,81.8h-243.7Z"/>
  <g>
    <path class="st0" d="M469.3,113.9c-.8,0-1.6,0-2.4-.3-23.1-5.7-38.4-16.5-45.5-32.2-10.5-23.3,2-47.7,2.6-48.8,2.6-4.9,8.6-6.8,13.5-4.2,4.9,2.6,6.8,8.6,4.2,13.5-.2.3-8.5,17.1-2,31.4,4.5,9.8,15.2,16.8,32,20.9,5.4,1.3,8.6,6.7,7.3,12.1-1.1,4.6-5.2,7.6-9.7,7.6Z"/>
    <path class="st0" d="M356.7,115.1c-5,0-9.3-3.8-9.9-8.8-.6-5.5,3.3-10.4,8.7-11.1.4,0,19-2.6,27.1-16,5.6-9.2,5.3-22.1-.7-38.2-1.9-5.2.7-10.9,5.9-12.9,5.2-1.9,10.9.7,12.9,5.9,8.3,22.3,8,41.1-1,55.8-13.3,21.8-40.6,25.2-41.7,25.4h-1.3Z"/>
    <path class="st0" d="M448.3,147.5c-3.3,0-6.5-1.6-8.4-4.5-.2-.3-10.7-15.9-26.4-17.2-10.7-.9-22.1,5-34,17.6-3.8,4-10.1,4.2-14.1.4s-4.2-10.1-.4-14.1c16.3-17.3,33.3-25.3,50.5-23.7,25.5,2.3,40.6,25.2,41.2,26.2,3,4.6,1.7,10.8-3,13.8-1.7,1.1-3.6,1.6-5.4,1.6h0Z"/>
  </g>
</svg>