<?xml version="1.0" encoding="UTF-8"?>
<svg id="Calque_1" xmlns="http://www.w3.org/2000/svg" version="1.1" viewBox="0 0 512 512">
  <!-- Generator: Adobe Illustrator 29.6.0, SVG Export Plug-In . SVG Version: 2.1.1 Build 207)  -->
  <defs>
    <style>
      .st0 {
        fill: #c99749;
      }
    </style>
  </defs>
  <path class="st0" d="M256,19.3c-44.4,0-85.1,25.4-115.2,68.1-30.2,42.7-49.2,102.4-49.2,168.6s19,125.9,49.2,168.6c30.1,42.7,70.8,68.1,115.2,68.1s85.1-25.4,115.2-68.1c30.1-42.7,49.2-102.4,49.2-168.6s-19-125.9-49.2-168.6c-30.1-42.7-70.8-68.1-115.2-68.1h0ZM188,215.6c22,0,43.6,9.4,57.5,32.7-13,10-26.1,18-39.4,23.6,1.9-3.9,3-8.2,3-12.8,0-15.9-12.9-28.8-28.8-28.8s-28.8,12.9-28.8,28.8,4.4,17.6,11.3,22.9c-.9,0-1.9,0-2.8,0-.9,0-1.9,0-2.8,0h0c-16-.2-32.2-3.8-48.7-11.2,5.2-29.7,43-55.4,79.7-55.2h0ZM324,215.6c36.7-.1,74.5,25.5,79.7,55.2-16.5,7.4-32.8,11-48.7,11.2h0c-.9,0-1.9,0-2.8,0-.9,0-1.9,0-2.8,0,6.9-5.3,11.3-13.6,11.3-22.9,0-15.9-12.9-28.8-28.8-28.8s-28.8,12.9-28.8,28.8,1.1,9,3,12.8c-13.3-5.7-26.5-13.6-39.4-23.6,13.9-23.3,35.5-32.7,57.5-32.7h0ZM210.9,299.6c8.8,0,18.2,3.6,25.7,11.1l19.4,19.4,19.4-19.4c7.5-7.5,16.9-11.2,25.7-11.1.6,0,1.2,0,1.8,0,9.3.5,17.7,4.8,24,11.1,6.2,6.3,10.5,14.6,11.1,24,.5,9.3-3,19.4-11.1,27.5l-19.4,19.4,19.4,19.4c8,8,11.6,18.1,11.1,27.5-.5,9.3-4.8,17.7-11.1,24-6.3,6.2-14.6,10.5-24,11.1-9.3.5-19.4-3-27.5-11.1l-19.4-19.4-19.4,19.4c-8,8-18.1,11.6-27.4,11.1-9.3-.5-17.7-4.8-24-11.1-6.2-6.2-10.5-14.6-11.1-24-.6-9.3,3-19.4,11.1-27.5l19.4-19.4-19.4-19.4c-8-8-11.6-18.1-11.1-27.5.6-9.3,4.8-17.7,11.1-24,6.3-6.2,14.6-10.5,24-11.1.6,0,1.2,0,1.8,0h0ZM211.8,317.6c-.6,0-1.1,0-1.6,0-4.4.3-8.9,2.4-12.3,5.8s-5.6,7.9-5.8,12.3c-.3,4.4,1,8.8,5.8,13.7l90.3,90.3c4.9,4.9,9.3,6.1,13.7,5.8,4.4-.3,8.9-2.4,12.3-5.8s5.6-7.9,5.8-12.3c.3-4.4-1-8.8-5.8-13.7l-90.3-90.3c-4.2-4.2-8.2-5.7-12-5.9h0ZM300.2,317.6c-3.8.1-7.8,1.6-12,5.9l-19.4,19.4,26,26,19.4-19.4c4.9-4.9,6.1-9.3,5.8-13.7-.3-4.4-2.4-8.9-5.8-12.3-3.4-3.4-7.9-5.6-12.3-5.8-.5,0-1.1,0-1.6,0ZM217.3,394.3l-19.4,19.4c-4.9,4.9-6.1,9.3-5.8,13.7.3,4.4,2.4,8.9,5.8,12.3,3.4,3.4,7.9,5.6,12.3,5.8,4.4.3,8.8-1,13.7-5.8l19.4-19.4-26-26h0Z"/>
</svg>