<?xml version="1.0" encoding="UTF-8"?>
<svg id="Calque_1" xmlns="http://www.w3.org/2000/svg" version="1.1" viewBox="0 0 512 512">
  <!-- Generator: Adobe Illustrator 29.6.0, SVG Export Plug-In . SVG Version: 2.1.1 Build 207)  -->
  <defs>
    <style>
      .st0 {
        fill: #dbce33;
      }
    </style>
  </defs>
  <path class="st0" d="M269.9,17c5.7,1.4,12.1,1.2,18.1,2,105.1,13.7,191.3,99.6,204.8,204.9.8,6,.6,12.3,2,18.1-.4,9.3.5,18.7,0,28-11.3,203.9-262.1,300.6-407.7,155.3C-58.8,279.9,37.8,28.4,241.9,17h28ZM161.4,176.9c-40.5,6.3-35.1,71.9,9.9,67.8,44.9-4.1,37.7-75.2-9.9-67.8ZM337.8,176.9c-40.5,6.3-35.1,71.9,9.9,67.8,44.9-4.1,37.7-75.2-9.9-67.8ZM222,286.1c-1.7.3-5.3,2.4-6.7,3.5-3.4,2.5-14.2,13.4-16.8,16.8-13.3,17.4,11,28.7,20,40.8-6.4,11.1-31.2,22.7-22.2,38,1.5,2.5,17.6,18.6,20.4,20.7,4.7,3.5,10,3.5,15.3,1.3l23.4-23.2c10.1,7.8,23.1,31.1,38.1,23.2,1.6-.8,19.8-18.9,21.1-20.9,10.8-15.8-14.8-27.8-21.5-39.2,6.7-12,30.1-21,22.3-37.2-2.1-4.3-18.2-20.3-22.5-22.3-16.3-7.4-25.4,15.6-37.4,22.5-9.4-6.9-20.4-26.7-33.5-24Z"/>
</svg>