<?xml version="1.0" encoding="UTF-8"?>
<svg id="Calque_1" xmlns="http://www.w3.org/2000/svg" version="1.1" viewBox="0 0 512 512">
  <!-- Generator: Adobe Illustrator 29.6.0, SVG Export Plug-In . SVG Version: 2.1.1 Build 207)  -->
  <defs>
    <style>
      .st0 {
        fill: #f4f4f4;
      }
    </style>
  </defs>
  <path class="st0" d="M448.9,125.3c-9-21.3-21.9-40.5-38.3-56.9-16.4-16.4-35.6-29.3-56.9-38.3-22.1-9.3-45.5-14.1-69.7-14.1h-56c-24.2,0-47.6,4.7-69.7,14.1-21.3,9-40.5,21.9-56.9,38.3-16.4,16.4-29.3,35.6-38.3,56.9-9.3,22.1-14.1,45.5-14.1,69.7s0,.8,0,1.2l10.6,137.9c.4,24.9,20.8,45.1,45.8,45.1h15.2c7.7,0,14,6.3,14,14v57c0,25.3,20.5,45.8,45.8,45.8h3.8c11,0,19.9-8.9,19.9-19.9v-11.8c0-8.7,6.8-16,15.4-16.2,9-.2,16.3,7,16.3,15.9v12.1c0,11,8.9,19.9,19.9,19.9h.4c11,0,19.9-8.9,19.9-19.9v-11.8c0-8.7,6.8-16,15.4-16.2,9-.2,16.3,7,16.3,15.9v12.1c0,11,8.9,19.9,19.9,19.9h3.8c25.3,0,45.8-20.5,45.8-45.8v-57c0-7.7,6.3-14,14-14h15.2c25,0,45.4-20.2,45.8-45.1l10.6-137.9c0-.4,0-.8,0-1.2,0-24.2-4.7-47.6-14.1-69.7ZM178.2,319.7c-30.8,0-55.8-25-55.8-55.8s25-55.8,55.8-55.8,55.8,25,55.8,55.8-25,55.8-55.8,55.8ZM261.6,393.5h-11.3c-10.8,0-18.8-9.9-16.6-20.5l5.5-26.3c1.6-7.9,8.6-13.5,16.6-13.5h.3c8,0,15,5.6,16.6,13.5l5.5,26.3c2.2,10.5-5.8,20.5-16.6,20.5ZM333.8,319.7c-30.8,0-55.8-25-55.8-55.8s25-55.8,55.8-55.8,55.8,25,55.8,55.8-25,55.8-55.8,55.8Z"/>
</svg>