<?xml version="1.0" encoding="UTF-8"?>
<svg id="Calque_1" xmlns="http://www.w3.org/2000/svg" version="1.1" viewBox="0 0 512 512">
  <!-- Generator: Adobe Illustrator 29.6.0, SVG Export Plug-In . SVG Version: 2.1.1 Build 207)  -->
  <defs>
    <style>
      .st0 {
        fill: #f4f4f4;
      }
    </style>
  </defs>
  <path class="st0" d="M256,16c-120,0-240,60-240,150s45,90,45,150-15,45-15,75,48,32,90,45v60h240v-60s90.6-28,90-45c-.9-27.9-15-30-15-75s45.6-91.4,45-150c0-90-120-150-240-150h0ZM166,196c33.1,0,60,26.9,60,60s-26.9,60-60,60c-33.1,0-60-26.9-60-60s26.9-60,60-60h0ZM346,196c33.1,0,60,26.9,60,60s-26.9,60-60,60-60-26.9-60-60,26.9-60,60-60h0ZM256,301c15,0,45,60,45,75q0,30-15,30h-60q-15,0-15-30c0-15,30-75,45-75h0Z"/>
</svg>