<?xml version="1.0" encoding="UTF-8"?>
<svg id="Calque_1" xmlns="http://www.w3.org/2000/svg" version="1.1" viewBox="0 0 512 512">
  <!-- Generator: Adobe Illustrator 29.6.0, SVG Export Plug-In . SVG Version: 2.1.1 Build 207)  -->
  <defs>
    <style>
      .st0 {
        fill: #e6effc;
      }
    </style>
  </defs>
  <path class="st0" d="M294.8,26.6l-56.8,33.8,7.8,13.2,35.2-21-10.2,65.4,6.3,10.6,58.9-35.1-7.8-13.2-37.3,22.1,10.1-65.4-6.2-10.5ZM147.1,60.5c-71,39.5-115,114.3-115.1,195.5,0,123.7,100.3,224,224,224,99.5,0,187-65.7,214.9-161.2-39.2,41.5-93.8,65.1-150.9,65.2-114.9,0-208-93.1-208-208,0-41.1,12.2-81.3,35.1-115.5ZM391.6,112.6l-6.9,16.5,44.1,18.4-68.3,35.9-5.5,13.2,73.7,30.8,6.9-16.5-46.7-19.5,68.3-35.9,5.5-13.2s-71.1-29.7-71.1-29.7ZM276.6,176.6l-97.8,35,8.1,22.7,60.6-21.7-35.4,97.9,6.5,18.1,101.4-36.2-8.1-22.7-64.2,23,35.4-97.9-6.5-18.2h0Z"/>
</svg>