<?xml version="1.0" encoding="UTF-8"?>
<svg id="Calque_1" xmlns="http://www.w3.org/2000/svg" version="1.1" viewBox="0 0 512 512">
  <!-- Generator: Adobe Illustrator 29.6.0, SVG Export Plug-In . SVG Version: 2.1.1 Build 207)  -->
  <defs>
    <style>
      .st0 {
        fill: #edd529;
      }
    </style>
  </defs>
  <path class="st0" d="M194.5,19.7l-13.1,42.6,27.6,6.6,19.5-17.5-34.1-31.7h0ZM320.5,19.7l-32.6,30.3,20.7,19.5,25.6-5.4-13.7-44.4h0ZM255.5,79.1c-14,.2-28.3,2.1-42.5,5.9-93.1,24.9-148.5,120.9-123.5,214,7.6,28.4,21.8,53.2,40.5,73.4.2.3.4.5.5.8h0c42.7,45.4,108.4,66.6,172.8,49.3,93.1-24.9,148.5-120.9,123.5-213.9-20.3-75.6-87.4-126.4-161.8-129.3-3.2-.1-6.4-.2-9.7-.1h0ZM85.5,82.6l10,43.4,27.2-8.2,8.1-24.9-45.3-10.4h0ZM429.5,82.7l-43.5,10,8.2,27.2,24.9,8.1,10.4-45.3ZM258.8,97.7c1.9,0,3.9,0,5.8.1,66.5,2.6,126.2,47.9,144.4,115.6,22.3,83.3-27,168.7-110.3,191.1-57.3,15.4-115.5-3.2-153.6-43.3h0c-7.7-11.2-14-23.5-18.4-36.3-24.5-70.8,10.6-153.7,82.9-178.5,60.9-20.9,132.2,9,153.2,70.8,17.6,51.7-8.1,112.3-60.9,130.1-44,14.9-95.4-6.9-110.3-51.4-12.4-36.9,6-80,43.6-92.4,30.9-10.3,67,5,77.2,36.2,8,24.4-3.4,52.7-27.1,62.4,10.8-10.4,15.8-26.2,11.7-41.6-5.3-19.7-23.8-32.5-43.4-31.3-2.8.2-5.7.6-8.5,1.3-22.5,6-36,29.4-29.9,51.9.7,2.6,1.6,5.1,2.8,7.4,0,0,0,.1,0,.2,0,.1.1.3.2.4,12,26.7,41.9,39.6,69.9,30.5,36.2-11.8,53.6-52.3,42.2-87.2-13.7-41.6-60.6-61.5-100.9-48.1-48,15.9-71,69.9-55.4,116.2,18.4,54.9,80.7,81.1,134.1,63.1,63.2-21.3,93.5-92.7,72.6-153.8-20-58.6-77.9-92.3-136.6-89.9-13.6.5-27.2,3-40.3,7.5-56.1,19.2-92.4,68.7-101.2,123.6.6-68.3,46.4-130.6,115.7-149.1,13.7-3.7,27.4-5.4,40.9-5.4h0ZM66.9,177.9l-44.4,13.6,30.3,32.7,19.5-20.7-5.4-25.6h0ZM449.8,178.7l-6.6,27.6,17.5,19.5,31.7-34.1-42.6-13.1h0ZM256.6,247.7c10.2.2,19.4,7.1,22.2,17.6,3.4,12.7-4,25.6-16.7,29-11.1,3-22.4-2.3-27.3-12.2-.5-1.1-.9-2.3-1.3-3.5h-.1c-.1-.3-.2-.7-.3-1.1-3.4-12.7,4-25.6,16.8-29,1.6-.4,3.2-.7,4.8-.8.7,0,1.4,0,2.1,0h0ZM54,283.5l-31.7,34,42.6,13.1,6.6-27.7-17.5-19.5h0ZM462,285.1l-19.5,20.7,5.4,25.6,44.4-13.7-30.3-32.6h0ZM95.7,381.2l-10.4,45.3,43.4-10-8.2-27.2-24.9-8.2h0ZM419.3,383.3l-27.2,8.1-8.1,24.9,45.3,10.4-10-43.4h0ZM206.3,439.7l-25.6,5.4,13.6,44.4,32.7-30.3-20.7-19.5h0ZM305.7,440.5l-19.5,17.5,34.1,31.7,13.1-42.6-27.7-6.6h0Z"/>
</svg>