<?xml version="1.0" encoding="UTF-8"?>
<svg id="Calque_1" xmlns="http://www.w3.org/2000/svg" version="1.1" viewBox="0 0 512 512">
  <!-- Generator: Adobe Illustrator 29.6.0, SVG Export Plug-In . SVG Version: 2.1.1 Build 207)  -->
  <defs>
    <style>
      .st0 {
        fill: #7d2293;
      }
    </style>
  </defs>
  <path class="st0" d="M256,25.1c-127.3,0-230.9,103.6-230.9,230.9s103.6,230.9,230.9,230.9,230.9-103.6,230.9-230.9S383.3,25.1,256,25.1ZM281.7,444.9l35.7-109.6h111.9c-27.2,59.5-83,100.8-147.6,109.6ZM222.9,179.7l-28.8,20.2-18.8-57.8,47.6,37.6ZM129,295l43.7-30.7,10,30.7h-53.7ZM290.3,179.8l47.7-37.7-18.9,58-28.8-20.3ZM340.4,264.6l42.9,30.3h-52.8l9.9-30.3ZM256.6,205.3l49.4,34.9-17.8,54.7h-63.1l-17.9-54.9,49.4-34.7ZM443.8,288.4l-90.3-63.9,34.5-105.9c37.4,35.9,58.6,85.2,58.6,137.4s-.9,21.7-2.8,32.3ZM343.2,86.6l-86.6,68.4-87.1-68.8c26.7-13.6,56.3-20.8,86.5-20.8s60.3,7.3,87.2,21.2ZM125,117.7l34.7,106.4-91.5,64.2c-1.8-10.7-2.8-21.5-2.8-32.4,0-52.7,21.5-102.3,59.5-138.3ZM82.7,335.3h113.1l35.8,109.8c-65.2-8.4-121.5-49.8-148.9-109.8ZM275,335.3l-18.4,56.5-18.4-56.5h36.8Z"/>
</svg>