<?xml version="1.0" encoding="UTF-8"?>
<svg id="Calque_1" xmlns="http://www.w3.org/2000/svg" version="1.1" viewBox="0 0 512 512">
  <!-- Generator: Adobe Illustrator 29.6.0, SVG Export Plug-In . SVG Version: 2.1.1 Build 207)  -->
  <defs>
    <style>
      .st0 {
        fill: #2eaf2b;
      }
    </style>
  </defs>
  <path class="st0" d="M287.1,173.6l72.1-72.1c9.4-9.4,24.6-9.4,34,0l72.1,72.1c9.4,9.4,9.4,24.6,0,34s-24.6,9.4-34,0l-31.1-31.1v230.3c0,13.3-10.7,24-24,24s-24-10.7-24-24v-230.3l-31.1,31.1c-9.4,9.4-24.6,9.4-34,0s-9.4-24.6,0-34h0ZM231.9,430.8h-24c-13.3,0-24-10.7-24-24s10.7-24,24-24h24c13.3,0,24,10.7,24,24s-10.7,24-24,24ZM231.9,334.7h-72.1c-13.3,0-24-10.7-24-24s10.7-24,24-24h72.1c13.3,0,24,10.7,24,24s-10.7,24-24,24ZM231.9,238.6h-120.1c-13.3,0-24-10.7-24-24s10.7-24,24-24h120.1c13.3,0,24,10.7,24,24s-10.7,24-24,24ZM231.9,142.6H63.8c-13.3,0-24-10.7-24-24s10.7-24,24-24h168.2c13.3,0,24,10.7,24,24s-10.7,24-24,24Z"/>
</svg>