<?xml version="1.0" encoding="UTF-8"?>
<svg id="Calque_1" xmlns="http://www.w3.org/2000/svg" version="1.1" viewBox="0 0 512 512">
  <!-- Generator: Adobe Illustrator 29.6.0, SVG Export Plug-In . SVG Version: 2.1.1 Build 207)  -->
  <defs>
    <style>
      .st0 {
        fill: #ed1414;
      }
    </style>
  </defs>
  <path class="st0" d="M256,16C123.4,16,16,123.4,16,256s107.4,240,240,240,240-107.5,240-240S388.5,16,256,16ZM256,76c99.4,0,180,80.6,180,180s-80.6,180-180,180-180-80.6-180-180,80.6-180,180-180ZM241,106c-8.3,0-15,6.7-15,15h0v30c0,8.3,6.7,15,15,15h30c8.3,0,15-6.7,15-15h0v-30c0-8.3-6.7-15-15-15h-30ZM257.8,196c-33.1-1-60.8,25.1-61.7,58.2,0,.6,0,1.2,0,1.7,0,33.1,26.9,60,60,60s60-26.9,60-60c0-32.5-25.8-59-58.2-60ZM121,226c-8.3,0-15,6.7-15,15v30c0,8.3,6.7,15,15,15h30c8.3,0,15-6.7,15-15h0v-30c0-8.3-6.7-15-15-15h-30ZM361,226c-8.3,0-15,6.7-15,15v30c0,8.3,6.7,15,15,15h30c8.3,0,15-6.7,15-15h0v-30c0-8.3-6.7-15-15-15h-30ZM241,346c-8.3,0-15,6.7-15,15v30c0,8.3,6.7,15,15,15h30c8.3,0,15-6.7,15-15v-30c0-8.3-6.7-15-15-15h-30Z"/>
</svg>