<?xml version="1.0" encoding="UTF-8"?>
<svg id="Calque_1" xmlns="http://www.w3.org/2000/svg" version="1.1" viewBox="0 0 512 512">
  <!-- Generator: Adobe Illustrator 29.6.0, SVG Export Plug-In . SVG Version: 2.1.1 Build 207)  -->
  <defs>
    <style>
      .st0 {
        fill: #444;
      }
    </style>
  </defs>
  <path class="st0" d="M250.6,20.9c-45.4.3-89.6,21-112.8,61.3-22.6,39.4-34.2,82.7-31.3,115.4,1.5,16.3,6.4,29.8,14.7,39.5,8.3,9.7,20.1,16.2,37.5,18l11,1.2-3,10.7c-2.3,8.3-3.8,16.3-3.8,24.9,0,27,4.3,79.3,18.5,123.6,7.1,22.1,16.7,42.2,28.8,56.1,12.1,13.9,25.9,21.8,43.8,21.8s31.8-7.9,43.8-21.8c12.1-13.9,21.7-34,28.8-56.1,14.2-44.2,18.5-96.5,18.5-123.6s-1.4-16.6-3.8-24.9l-3-10.5,10.9-1.3c17.1-2,29-8.4,37.5-17.7,8.4-9.4,13.5-22.2,15-38,3-31.7-9-74.7-34.8-117-25.5-41.8-70.9-61.8-116.4-61.5h0ZM173.4,145.5c24.4,0,44.1,19.6,44.1,44s-19.6,44.1-44.1,44.1-44-19.6-44-44.1,19.6-44,44-44h0ZM334.8,145.5c24.4,0,44.1,19.6,44.1,44s-19.6,44.1-44.1,44.1-44-19.6-44-44.1c0-24.4,19.6-44,44-44ZM172.4,180.6c-6.6,0-11.8,5.2-11.8,11.8s5.2,11.8,11.8,11.8,11.8-5.2,11.8-11.8-5.2-11.8-11.8-11.8h0ZM336.6,180.6c-6.6,0-11.8,5.2-11.8,11.8,0,6.6,5.2,11.8,11.8,11.8s11.8-5.2,11.8-11.8-5.2-11.8-11.8-11.8h0ZM255.2,232.5c38.8,0,68.9,36,68.9,78.6s-2.5,56.2-11.5,88.7c-4.5,16.2-10.7,31.6-19.7,43.6-9,12-22,20.8-37.7,20.8s-28.6-8.8-37.7-20.8c-9-12-15.1-27.3-19.7-43.6-9.1-32.5-11.6-68.8-11.6-88.7,0-42.6,30.1-78.6,68.9-78.6h0ZM255.2,251.2c-17.9,0-34.2,11.5-43.1,29.1h86.1c-8.9-17.6-25.1-29.1-43-29.1h0ZM227.9,425.1c1.4,2.5,3,4.9,4.5,7,6.8,9,13.7,13.4,22.8,13.4s15.9-4.4,22.7-13.4c1.6-2.1,3.1-4.4,4.5-7h-54.5,0Z"/>
</svg>