<?xml version="1.0" encoding="UTF-8"?>
<svg id="Calque_1" xmlns="http://www.w3.org/2000/svg" version="1.1" viewBox="0 0 512 512">
  <!-- Generator: Adobe Illustrator 29.6.0, SVG Export Plug-In . SVG Version: 2.1.1 Build 207)  -->
  <defs>
    <style>
      .st0 {
        fill: #dbce33;
      }
    </style>
  </defs>
  <path class="st0" d="M234.8,19.4c191.6-15.8,324.3,188.2,229.7,356.9-90.7,161.7-326.8,161.8-417.5,0C-37.9,224.6,62,33.6,234.8,19.4ZM150.4,168.7l-18.1,17.6,29.9,29.9-29.9,29.9,19.6,19.6,29.9-29.9c2.1,0,22.5,24.8,27.2,27.2s20.8-16.3,20.4-18.6l-27.9-28.3c0-2.1,24.8-22.5,27.2-27.2s-16.3-20.8-18.6-20.4l-28.3,27.9c-6.1-4.2-25.5-29.4-31.4-27.8ZM300,168.6l-17.9,19.3,27.9,28.3c0,2.1-24.8,22.5-27.2,27.2-2,3.9,16.3,20.8,18.6,20.4l28.3-27.9,29.9,29.9,19.6-19.6-29.9-29.9,29.9-29.9c-5-3.5-15.5-19.1-21.1-17.6l-28.5,27.8-29.7-27.9ZM399.9,310.7H111.7v26.2h157.5l-.8,2.7c-12.3,47.6,26.7,101.2,77.2,75,31-16.1,26.9-47.3,27.7-77.7h26.5v-26.2Z"/>
  <path class="st0" d="M345.6,336.9v38.4c0,6.5-12.1,15.6-18.6,16.9-14.2,3-31.9-7.7-31.9-22.6v-32.7h50.5Z"/>
</svg>