<?xml version="1.0" encoding="UTF-8"?>
<svg id="Calque_1" xmlns="http://www.w3.org/2000/svg" version="1.1" viewBox="0 0 512 512">
  <!-- Generator: Adobe Illustrator 29.6.0, SVG Export Plug-In . SVG Version: 2.1.1 Build 207)  -->
  <defs>
    <style>
      .st0 {
        fill: #f99bf7;
      }

      .st1 {
        fill: #f4b8f4;
      }

      .st2 {
        fill: #d67cd6;
      }
    </style>
  </defs>
  <path class="st2" d="M312.2,256c0,5.8-4.7,10.5-10.5,10.5h-15.6c-10.8,0-19.6,8.8-19.6,19.6v15.6c0,5.8-4.7,10.5-10.5,10.5s-10.5-4.7-10.5-10.5v-15.6c0-10.8-8.8-19.6-19.6-19.6h-15.6c-5.8,0-10.5-4.7-10.5-10.5s4.7-10.5,10.5-10.5h15.6c10.8,0,19.6-8.8,19.6-19.6v-15.6c0-5.8,4.7-10.5,10.5-10.5s10.5,4.7,10.5,10.5v15.6c0,10.8,8.8,19.6,19.6,19.6h15.6c5.8,0,10.5,4.7,10.5,10.5Z"/>
  <g>
    <path class="st0" d="M190.7,256c0,10.8,8.8,19.6,19.6,19.6h15.6c5.8,0,10.5,4.7,10.5,10.5v15.6c0,9.2,6.4,17,15,19.1v37.9c-54.6-2.4-98.2-47.5-98.2-102.6s43.6-100.3,98.2-102.6v37.9c-8.6,2.1-15,9.8-15,19v15.6c0,5.8-4.7,10.5-10.5,10.5h-15.6c-10.8,0-19.6,8.8-19.6,19.6Z"/>
    <path class="st0" d="M260.6,153.3v37.9c8.6,2.1,15,9.8,15,19v15.6c0,5.8,4.7,10.5,10.5,10.5h15.6c10.8,0,19.6,8.8,19.6,19.6s-8.8,19.6-19.6,19.6h-15.6c-5.8,0-10.5,4.7-10.5,10.5v15.6c0,9.2-6.4,17-15,19.1v37.9c54.6-2.4,98.2-47.5,98.2-102.6s-43.6-100.3-98.2-102.6Z"/>
  </g>
  <g>
    <path class="st1" d="M229.1,18.5c-35.1,0-63.9,27.3-66.3,61.9-6.6,2.7-11.8,7.5-14.3,13.4-.6,0-1.2,0-1.8,0-41,0-74.1,28.5-74.1,63.5s0,1.5,0,2.3c0,.3,0,.6,0,.8.2,2.8.5,5.5,1.1,8.2-7.2,4.4-11.9,11.6-11.9,19.7s.9,7,2.6,10c-21.9,14.1-36.1,36.4-36.1,61.7s12.1,44.2,31.3,58.3c-1.2,6.5-1.9,13.1-1.9,20,0,29,11.7,55.2,30.6,74.2h0c3.6,3.6,7.4,6.9,11.4,10,.9.7,1.8,1.3,2.7,2,.3.2.5.4.8.5,1.1.8,2.2,1.5,3.3,2.2,2.7,1.7,5.5,3.3,8.4,4.8,1.1.5,2.1,1.1,3.2,1.6,4.2,2,8.5,3.7,12.9,5.1,1,.3,2.1.7,3.2,1,.4,12.5,10.4,22.6,22.9,23.1,2.4,3.8,5.2,7.3,8.4,10.5,3.9,4.5,8.7,8.3,14.1,11,.9.5,1.9,1.1,2.8,1.6.9.5,1.9,1,2.9,1.4,3.3,1.5,6.9,2.8,10.5,3.8.6.2,1.2.3,1.8.5,2.1.5,4.3,1,6.5,1.2.7,0,1.3.2,2,.3.1,0,.3,0,.4,0,.7,0,1.4.1,2.1.2,1.5.1,3,.2,4.6.2,2.3,0,4.6-.1,6.8-.4.8,0,1.5-.2,2.2-.3,1-.1,2-.3,2.9-.5.8-.2,1.7-.3,2.5-.5.2,0,.4,0,.5-.1,1.9-.4,3.7-.9,5.5-1.5.9-.3,1.8-.6,2.7-.9,0,0,.1,0,.2,0,.7-.3,1.3-.5,2-.8,1.1-.4,2.1-.9,3.2-1.4,1.7-.8,3.4-1.7,5.1-2.7,1.6-1,3.2-2,4.7-3.1v-70.4c-82.1-2.4-148.3-68.8-150.4-150.9-8.7-2.1-15.2-9.9-15.2-19.2s8.8-19.7,19.7-19.7,19.7,8.8,19.7,19.7-6.4,17.1-15.1,19.1c2.1,77.1,64.3,139.5,141.3,141.8v-34.1c-59.6-2.4-107.3-51.6-107.3-111.8s47.7-109.4,107.3-111.8V22.4c-7-2.5-14.5-3.9-22.3-3.9Z"/>
    <circle class="st1" cx="406.5" cy="273.3" r="10.6"/>
    <path class="st1" d="M483.6,260c0-25.3-14.2-47.7-36.1-61.7,1.6-3,2.6-6.4,2.6-10,0-8.1-4.7-15.3-11.9-19.7.8-3.7,1.2-7.4,1.2-11.3,0-35.1-33.2-63.5-74.1-63.5s-1.2,0-1.8,0c-2.5-5.9-7.7-10.7-14.3-13.4-.2-3-.6-5.9-1.2-8.8-.2-1-.4-1.9-.6-2.8-.2-.9-.5-1.7-.7-2.6,0-.1,0-.2,0-.3-.2-.7-.4-1.4-.7-2.1-.1-.3-.2-.6-.3-.9-.2-.6-.4-1.2-.7-1.8-.3-.8-.6-1.6-1-2.4-.3-.7-.6-1.4-1-2.1,0-.2-.2-.4-.3-.6-.4-.8-.8-1.6-1.3-2.4,0,0,0-.1,0-.2-.5-.9-1-1.8-1.5-2.6-1.1-1.9-2.4-3.7-3.7-5.5-.5-.7-1-1.4-1.6-2-.6-.8-1.3-1.5-1.9-2.3,0,0-.2-.2-.3-.3-.5-.6-1.1-1.2-1.7-1.8-.2-.2-.4-.4-.6-.6-.5-.5-1-1-1.5-1.4-.2-.2-.3-.3-.5-.5-.7-.6-1.4-1.3-2.1-1.8-.8-.7-1.6-1.3-2.4-1.9-.6-.5-1.3-1-2-1.5-2.6-1.9-5.3-3.6-8.2-5.1-.7-.4-1.4-.7-2.1-1-1.4-.7-2.9-1.3-4.4-1.9-.6-.3-1.3-.5-1.9-.7-.3-.1-.6-.2-.9-.3-.6-.2-1.2-.4-1.8-.6-.3-.1-.6-.2-.9-.3-.8-.3-1.5-.4-2.2-.6-.2,0-.5-.1-.7-.2-.7-.2-1.4-.3-2.1-.5-.3,0-.6-.2-1-.2-.6-.1-1.2-.2-1.8-.3-.5,0-.9-.2-1.4-.2-.5,0-1-.2-1.5-.2-.6,0-1.2-.2-1.8-.2,0,0-.2,0-.2,0-.9,0-1.8-.1-2.8-.2-1,0-2,0-3,0-7.8,0-15.3,1.4-22.3,3.9v78.7c82.8,2.4,149.5,70,150.5,153.1,8.7,2.1,15.1,9.8,15.1,19.2s-8.8,19.7-19.7,19.7-19.7-8.8-19.7-19.7,6.4-17.1,15.1-19.1c-1-78.1-63.6-141.6-141.3-144v34.1c59.6,2.4,107.3,51.6,107.3,111.8s-47.7,109.4-107.3,111.8v113.6c1.5,1.1,3.1,2.1,4.7,3.1,1.7,1,3.3,1.9,5.1,2.7,1,.5,2.1,1,3.2,1.4.7.3,1.3.5,2,.8,0,0,0,0,.2,0,.9.3,1.8.6,2.7.9,1.8.6,3.6,1.1,5.5,1.5h.5c.8.3,1.6.5,2.5.6,1,.2,1.9.3,2.9.5.7,0,1.5.2,2.2.3,2.2.3,4.5.4,6.8.4s3.1,0,4.6-.2c.7,0,1.4-.1,2.1-.2.1,0,.3,0,.4,0,.7,0,1.3-.2,2-.3,2.2-.3,4.4-.7,6.5-1.2.6-.1,1.2-.3,1.8-.5,3.6-1,7.1-2.3,10.5-3.8,1-.5,2-.9,2.9-1.4,1-.5,1.9-1,2.8-1.6,5.4-2.8,10.1-6.5,14.1-11,3.1-3.2,5.9-6.7,8.3-10.5,12.5-.5,22.5-10.6,22.9-23.1.9-.3,1.8-.5,2.7-.8.5-.2.9-.3,1.4-.5.1,0,.3,0,.4-.1,1-.3,2.1-.7,3.1-1.1,1-.3,1.9-.7,2.8-1.1.5-.2.9-.3,1.4-.5.7-.3,1.3-.5,2-.9.9-.4,1.7-.8,2.5-1.2,1.2-.5,2.3-1.1,3.5-1.7,2.8-1.5,5.6-3.1,8.3-4.8.8-.5,1.5-1,2.2-1.5.3-.2.6-.4.9-.6.4-.2.7-.5,1-.7,1.8-1.3,3.5-2.6,5.2-4,1.1-.9,2.1-1.8,3.2-2.7,1-.9,2.1-1.9,3.1-2.8,0,0,.1,0,.2-.2,1-.9,1.9-1.8,2.8-2.8.5-.5,1-1,1.4-1.5.5-.5,1-1,1.4-1.5.9-1,1.8-2.1,2.7-3.2.9-1.1,1.8-2.2,2.6-3.3.4-.5.7-.9,1-1.4,0-.1.2-.2.2-.3.4-.5.8-1.1,1.2-1.6.5-.6.9-1.2,1.3-1.8.4-.6.8-1.2,1.2-1.8.4-.6.8-1.2,1.1-1.8.4-.6.7-1.2,1.1-1.8.6-1,1.2-2.1,1.8-3.2.2-.3.4-.7.5-1,.5-1,1.1-2.1,1.6-3.1.9-1.8,1.7-3.6,2.5-5.5.4-1,.9-2.1,1.3-3.2.4-1.1.8-2.2,1.2-3.3.1-.3.2-.5.3-.8.4-1.1.7-2.2,1-3.3,0,0,0-.1,0-.2.4-1.3.8-2.6,1.1-3.8.3-1.1.6-2.3.8-3.4,0-.4.2-.8.3-1.1.1-.5.2-1.1.3-1.6,0-.2,0-.3,0-.5.1-.7.3-1.3.4-2,.4-2.4.7-4.9,1-7.3.3-3.4.5-6.9.5-10.3,0-6.8-.7-13.5-1.9-20,19.1-14.1,31.3-35,31.3-58.3Z"/>
    <path class="st1" d="M105.5,230.3c-5.8,0-10.6,4.7-10.6,10.6s4.7,10.6,10.6,10.6,10.6-4.7,10.6-10.6-4.8-10.6-10.6-10.6Z"/>
  </g>
</svg>