<?xml version="1.0" encoding="UTF-8"?>
<svg id="Calque_1" xmlns="http://www.w3.org/2000/svg" version="1.1" viewBox="0 0 512 512">
  <!-- Generator: Adobe Illustrator 29.6.0, SVG Export Plug-In . SVG Version: 2.1.1 Build 207)  -->
  <defs>
    <style>
      .st0 {
        fill: #9cb5d3;
      }
    </style>
  </defs>
  <path class="st0" d="M256,110.3c5.1,0,10.2,1.9,14.1,5.8l133.8,133.8c7.8,7.8,7.8,20.4,0,28.3-7.8,7.8-20.4,7.8-28.3,0l-119.7-119.7-119.7,119.7c-7.8,7.8-20.4,7.8-28.3,0-7.8-7.8-7.8-20.4,0-28.3L241.9,116.2c3.9-3.9,9-5.8,14.1-5.8h0ZM256,227.8c5.1,0,10.2,1.9,14.1,5.8l133.8,133.9c7.8,7.8,7.8,20.4,0,28.3-7.8,7.8-20.4,7.8-28.3,0l-119.7-119.7-119.7,119.7c-7.8,7.8-20.4,7.8-28.3,0-7.8-7.8-7.8-20.4,0-28.3l133.8-133.8c3.9-3.9,9-5.8,14.1-5.8h0Z"/>
</svg>