<?xml version="1.0" encoding="UTF-8"?>
<svg id="Calque_1" xmlns="http://www.w3.org/2000/svg" version="1.1" viewBox="0 0 512 512">
  <!-- Generator: Adobe Illustrator 29.6.0, SVG Export Plug-In . SVG Version: 2.1.1 Build 207)  -->
  <defs>
    <style>
      .st0 {
        fill: #30698c;
      }
    </style>
  </defs>
  <path class="st0" d="M383.9,226.7l-27.4,7.1,20.1-20.7c-3.6-6.2-7.5-12.3-11.9-18.4-14.4-19.9-29.8-37.3-45.8-52.7l-15.2,21.8v-35.5C195,34,67.9,28.9,67.9,28.9c0,0,67.6,45.5,99.6,139.3l40.7,18.2-35.7-1.9c3.5,12.6,6.4,25.9,8.3,40.1,2.3,16.4,5.9,33.2,10.8,49.9l86.6,15.7h-81.6c4.8,13.7,10.5,27.3,17.3,40.4l34.2-2.1-27.1,15.3c26.3,45.5,65.2,84.7,118.4,105.7,3.4,14.1,1.6,23.7,1.6,23.7h10.5l.5-19.1c-1.2-81.6-20.8-200.3-106.7-307.7,109.2,122.7,125.4,239.4,124.3,302.7,15.8-29.1,60.6-126.6,14.1-222.4Z"/>
</svg>