<?xml version="1.0" encoding="UTF-8"?>
<svg id="Calque_1" xmlns="http://www.w3.org/2000/svg" version="1.1" viewBox="0 0 512 512">
  <!-- Generator: Adobe Illustrator 29.6.0, SVG Export Plug-In . SVG Version: 2.1.1 Build 207)  -->
  <defs>
    <style>
      .st0 {
        fill: #4aa6c6;
      }
    </style>
  </defs>
  <path class="st0" d="M384.7,231.1h-42.7c-7.8,0-14.2-6.4-14.2-14.2v-37.2c0-3.7,1.4-7.3,4.1-10.1l56.9-56.9c5.5-5.5,5.5-14.7,0-20.2l-37.2-37.2c-5.5-5.5-14.7-5.5-20.2,0l-65.6,65.6c-5.5,5.5-14.7,5.5-20.2,0l-65.6-65.6c-5.5-5.5-14.7-5.5-20.2,0l-37.2,37.2c-5.5,5.5-5.5,14.7,0,20.2l57.4,57.4c2.3,2.8,4.1,6,4.1,10.1v37.2c0,7.8-6.4,14.2-14.2,14.2h-42.7c-7.8,0-14.2,6.4-14.2,14.2v57.4c0,7.8,6.4,14.2,14.2,14.2h42.7c7.8,0,14.2,6.4,14.2,14.2v12.4c0,39,30.3,72,69.3,73,40.8.9,73.9-31.7,73.9-71.6v-14.2c0-7.8,6.4-14.2,14.2-14.2h43.1c7.8,0,14.2-6.4,14.2-14.2v-57.4c0-7.8-6.4-14.2-14.2-14.2ZM255.8,388c-23.6,0-42.7-19.1-42.7-42.7s19.1-42.7,42.7-42.7,42.7,19.1,42.7,42.7-19.1,42.7-42.7,42.7Z"/>
</svg>