<?xml version="1.0" encoding="UTF-8"?>
<svg id="Calque_1" xmlns="http://www.w3.org/2000/svg" version="1.1" viewBox="0 0 512 512">
  <!-- Generator: Adobe Illustrator 29.6.0, SVG Export Plug-In . SVG Version: 2.1.1 Build 207)  -->
  <defs>
    <style>
      .st0 {
        fill: #f2eded;
      }
    </style>
  </defs>
  <path class="st0" d="M22.5,28.8c107.6,68.1,207,121.5,322,133.7,40.7,4.3,47.8,34.9,31.7,70.1-26.5,57.8,16.4,143.5,112.3,195.5-6,28-46.3,51.5-71.2,43.3-20.7-43.2-52.9-88.7-87.8-76.4-71.4,25.3-144.9,30.7-194.8,3.4,66.2-9,129.3-26.6,184.8-54.3-100.3,15-219.1,15.4-264.1-35,91.1,3.6,164.9-5.6,247.3-26.2-109.7-10.1-230.4-30.2-264.4-97.5,81,25.2,189.6,34.6,263,35.2C186.9,191.7,32.9,112.7,22.5,28.8h0Z"/>
</svg>