<?xml version="1.0" encoding="UTF-8"?>
<svg id="Calque_1" xmlns="http://www.w3.org/2000/svg" version="1.1" viewBox="0 0 512 512">
  <!-- Generator: Adobe Illustrator 29.6.0, SVG Export Plug-In . SVG Version: 2.1.1 Build 207)  -->
  <defs>
    <style>
      .st0 {
        fill: #af8b8b;
      }
    </style>
  </defs>
  <path class="st0" d="M494.2,21.1l-164.5,1.2c-15.5,28-33.9,52.7-54.2,75.8,6,1.5,12.1,3,18,4.5l13.7,3.5-8.5,11.3c-50.4,66.5-44.6,142.1-27.4,213.7l-18.2,4.4c-16.8-69.8-23.5-148.2,22.6-217.9C187.8,95.6,92.2,74.1,22.5,28.1c-1.8,4.9-1,10.2,2.3,17.2,2.4,5.2,6.5,11,12.1,17.1,53.2,37.9,130.5,65.9,189.8,75.2l-2.9,18.5c-61.9-9.6-139.6-37.4-196-77.2.6,6,2.6,12.4,6.4,19.4,6.9,12.8,19.3,26.5,35.7,38.9.8.6,1.7,1.3,2.6,1.9,42.6,22.7,93.7,38.9,140.7,42.2l-1.3,18.6c-61.1-4.2-126.3-28.2-175.7-60.7,1,4.9,3.3,10.4,6.9,16.4,7.4,12.1,20.1,25.5,36.2,37.7,39.3,17.8,81.6,32.9,128.6,36.5l-1.4,18.6c-56.1-4.2-105.1-23.7-149.1-44.7,3.7,19.6,17.3,34.4,38.9,46.8,26.8,15.4,65.3,25.4,105.8,31.3l7.5,1.1.5,7.5c1.1,15.5,4.6,22.8,9.7,31.7l-16.1,9.4c-4.9-8.4-9.3-18.5-11.3-32.4-32.3-5.1-63.4-12.6-89.4-24.3-6.4,7.8-12.8,15.7-19,24,16.5,23.8,30.6,43,52.8,65.8l27.1-9.5,9.3-3.2,2.7,9.5c15.1,53.1,59.6,93.6,113.6,113.8,48,18,103,19.6,150.1.6-68.7-37.6-114.6-123.7-135.8-199.9l-1.1-4.2,2.4-3.6c43.4-64.9,120.7-119.3,189.1-144.2V21.1h0Z"/>
</svg>